<svg width="109" height="109" viewBox="0 0 109 109" fill="none" xmlns="http://www.w3.org/2000/svg">
<g filter="url(#filter0_d_2369_164)">
<path d="M17 54.5C17 33.7893 33.7893 17 54.5 17H92V92H54.5C33.7893 92 17 75.2107 17 54.5V54.5Z" fill="#29AB87"/>
<path d="M71.6281 43.387C70.246 41.9909 68.5998 40.884 66.7854 40.1308C64.971 39.3776 63.0248 38.9932 61.0603 39.0001C52.8291 39.0001 46.1206 45.7086 46.1206 53.9398C46.1206 56.578 46.8141 59.1408 48.1106 61.4021L46 69.1508L53.9146 67.0704C56.1005 68.2614 58.5578 68.8946 61.0603 68.8946C69.2915 68.8946 76 62.186 76 53.9549C76 49.9599 74.4472 46.2061 71.6281 43.387ZM61.0603 66.3619C58.8291 66.3619 56.6432 65.7589 54.7286 64.6282L54.2764 64.3569L49.5729 65.5931L50.8241 61.0101L50.5226 60.5428C49.283 58.5634 48.6248 56.2753 48.6231 53.9398C48.6231 47.0956 54.201 41.5177 61.0452 41.5177C64.3618 41.5177 67.4824 42.8142 69.8191 45.1659C70.9761 46.3176 71.893 47.6875 72.5167 49.1962C73.1403 50.7049 73.4583 52.3224 73.4523 53.9549C73.4824 60.7991 67.9045 66.3619 61.0603 66.3619ZM67.8744 57.0755C67.4975 56.8946 65.6583 55.99 65.3266 55.8544C64.9799 55.7338 64.7387 55.6735 64.4824 56.0353C64.2261 56.4121 63.5176 57.2564 63.3065 57.4976C63.0955 57.7539 62.8693 57.784 62.4925 57.588C62.1156 57.4071 60.9095 57.0001 59.4925 55.7338C58.3769 54.7388 57.6382 53.5177 57.4121 53.1408C57.201 52.7639 57.3819 52.5679 57.5779 52.3719C57.7437 52.2061 57.9548 51.9348 58.1357 51.7237C58.3166 51.5127 58.392 51.3468 58.5126 51.1056C58.6332 50.8493 58.5729 50.6383 58.4824 50.4574C58.392 50.2765 57.6382 48.4373 57.3367 47.6835C57.0352 46.9599 56.7186 47.0503 56.4925 47.0353H55.7688C55.5126 47.0353 55.1206 47.1257 54.7739 47.5026C54.4422 47.8795 53.4774 48.784 53.4774 50.6232C53.4774 52.4624 54.8191 54.2413 55 54.4825C55.1809 54.7388 57.6382 58.5076 61.3769 60.1207C62.2663 60.5127 62.9598 60.7388 63.5025 60.9046C64.392 61.191 65.206 61.1458 65.8543 61.0554C66.5779 60.9498 68.0703 60.1508 68.3719 59.2765C68.6884 58.4021 68.6884 57.6634 68.5829 57.4976C68.4774 57.3317 68.2513 57.2564 67.8744 57.0755Z" fill="#FDFDFD"/>
</g>
<defs>
<filter id="filter0_d_2369_164" x="0.1" y="0.1" width="108.8" height="108.8" filterUnits="userSpaceOnUse" color-interpolation-filters="sRGB">
<feFlood flood-opacity="0" result="BackgroundImageFix"/>
<feColorMatrix in="SourceAlpha" type="matrix" values="0 0 0 0 0 0 0 0 0 0 0 0 0 0 0 0 0 0 127 0" result="hardAlpha"/>
<feMorphology radius="5" operator="dilate" in="SourceAlpha" result="effect1_dropShadow_2369_164"/>
<feOffset/>
<feGaussianBlur stdDeviation="5.95"/>
<feComposite in2="hardAlpha" operator="out"/>
<feColorMatrix type="matrix" values="0 0 0 0 0 0 0 0 0 0 0 0 0 0 0 0 0 0 0.52 0"/>
<feBlend mode="normal" in2="BackgroundImageFix" result="effect1_dropShadow_2369_164"/>
<feBlend mode="normal" in="SourceGraphic" in2="effect1_dropShadow_2369_164" result="shape"/>
</filter>
</defs>
</svg>
