<svg width="52" height="50" viewBox="0 0 52 50" fill="none" xmlns="http://www.w3.org/2000/svg">
<path d="M51.5334 18.7138H48.8938C45.7343 9.30752 36.8349 2.51449 26.382 2.51449C14.1387 2.51449 4.03472 11.8286 2.77748 23.7362C2.69191 24.559 2.64582 25.4015 2.64582 26.2507H0.131348C0.131348 25.3291 0.177425 24.3944 0.276161 23.4729C0.95415 17.0682 3.9689 11.144 8.77405 6.79305C13.6121 2.40917 19.8654 0 26.382 0C37.6708 0 47.6761 7.19459 51.2767 17.9108C51.3688 18.174 51.4478 18.4439 51.5334 18.7138Z" fill="white"/>
<path d="M34.6222 18.7138H30.6399C29.3826 18.0029 27.9279 17.5948 26.381 17.5948C22.4777 17.5948 19.1733 20.1883 18.0938 23.7428C17.8502 24.5393 17.7186 25.3818 17.7186 26.2573H15.2041C15.2041 25.395 15.3028 24.5524 15.4872 23.7428C16.6325 18.7862 21.0756 15.0869 26.3745 15.0869C29.6327 15.0869 32.5685 16.489 34.6156 18.7204L34.6222 18.7138Z" fill="white"/>
<path d="M40.7245 18.7138H37.7953C35.3467 15.0145 31.1405 12.5659 26.3814 12.5659C19.6937 12.5659 14.1118 17.3908 12.927 23.7362C12.7756 24.5524 12.6966 25.3884 12.6966 26.2507H10.1821C10.1821 25.395 10.2479 24.559 10.3796 23.7362C11.5842 15.9821 18.2917 10.0514 26.3814 10.0514C32.6084 10.0514 38.0126 13.5598 40.7245 18.7072V18.7138Z" fill="white"/>
<path d="M46.2222 18.7138H43.5036C40.6008 12.138 34.0184 7.54348 26.3762 7.54348C16.9107 7.54348 9.06448 14.6064 7.83357 23.7428C7.72167 24.5656 7.66243 25.4015 7.66243 26.2573H5.14795C5.14795 25.4081 5.20062 24.5656 5.29935 23.7428C6.54343 13.2175 15.5218 5.02899 26.3762 5.02899C35.427 5.02899 43.168 10.7228 46.2156 18.7138H46.2222Z" fill="white"/>
<path d="M50.1183 26.2572C50.1183 27.1064 50.0723 27.9423 49.9867 28.7717C49.9735 28.8836 49.9604 29.0021 49.9472 29.114C49.8616 29.8446 49.7366 30.5753 49.5852 31.2862C47.2747 41.9695 37.75 50 26.3822 50C14.1389 50 4.03489 40.6859 2.77765 28.7783C2.69208 27.9555 2.646 27.113 2.646 26.2638H5.16048C5.16048 27.113 5.21314 27.9555 5.31187 28.7783C6.55595 39.3036 15.5344 47.4921 26.3888 47.4921C36.3611 47.4921 44.7471 40.5805 47.0114 31.2928C47.2155 30.47 47.3669 29.634 47.4656 28.7783C47.5644 27.9555 47.617 27.113 47.617 26.2638V23.7493H34.676C34.3995 22.841 33.9783 21.9918 33.4385 21.2349H49.5917C49.7695 22.0577 49.9077 22.8936 49.9933 23.7493C50.0788 24.5721 50.1249 25.4147 50.1249 26.2638L50.1183 26.2572Z" fill="white"/>
<path d="M45.0951 26.2573C45.0951 27.1064 45.0358 27.9489 44.9239 28.7717C44.8054 29.6275 44.6343 30.47 44.4039 31.2862C42.2054 39.172 34.9582 44.9711 26.3813 44.9711C16.9158 44.9711 9.06953 37.9081 7.83862 28.7717C7.72672 27.9489 7.66748 27.113 7.66748 26.2573H10.182C10.182 27.113 10.2478 27.9489 10.3794 28.7717C11.584 36.5258 18.2915 42.4566 26.3813 42.4566C33.5759 42.4566 39.6712 37.7699 41.7841 31.2862C42.0474 30.4766 42.2515 29.634 42.3831 28.7717H26.3813V26.2573H45.0951Z" fill="white"/>
<path d="M39.1125 31.2796C37.1048 36.3481 32.1549 39.9355 26.3821 39.9355C19.6944 39.9355 14.1125 35.1106 12.9277 28.7652C12.7763 27.9489 12.6973 27.113 12.6973 26.2507H15.2118C15.2118 27.113 15.3105 27.9555 15.4948 28.7652C16.6401 33.7217 21.0833 37.421 26.3821 37.421C30.7331 37.421 34.518 34.9197 36.361 31.2731H39.1125V31.2796Z" fill="white"/>
</svg>
