<svg width="73" height="24" viewBox="0 0 73 24" fill="none" xmlns="http://www.w3.org/2000/svg">
<path d="M11.56 6.76698C11.1782 6.02975 10.6451 5.47022 9.96707 5.09502C9.28908 4.71982 8.49919 4.52894 7.60398 4.52894C6.6232 4.52894 5.75432 4.74616 4.99077 5.18718C4.22721 5.62821 3.62822 6.25355 3.19378 7.05661C2.75934 7.86624 2.54211 8.80092 2.54211 9.86727C2.54211 10.9336 2.75934 11.8683 3.19378 12.6846C3.62822 13.5008 4.22721 14.1261 4.99077 14.5671C5.75432 15.0081 6.62979 15.2254 7.60398 15.2254C8.92046 15.2254 9.9934 14.8567 10.8162 14.1195C11.639 13.3823 12.1393 12.3818 12.3236 11.1179H6.77459V9.18271H14.9236V11.0784C14.7656 12.2304 14.3575 13.2836 13.6993 14.2512C13.0411 15.2188 12.1788 15.9824 11.1256 16.5616C10.0658 17.1343 8.89414 17.4239 7.60398 17.4239C6.21509 17.4239 4.94469 17.1013 3.79935 16.4563C2.65401 15.8112 1.73906 14.916 1.06765 13.7641C0.396249 12.6122 0.0605469 11.3154 0.0605469 9.87386C0.0605469 8.43231 0.396249 7.12901 1.06765 5.98367C1.73906 4.83175 2.654 3.93652 3.81251 3.29145C4.97101 2.64637 6.23485 2.32385 7.61057 2.32385C9.18377 2.32385 10.5858 2.71218 11.8102 3.48232C13.0345 4.25246 13.9297 5.35176 14.4826 6.76698H11.5666H11.56Z" fill="white"/>
<path d="M16.5838 3.5745C16.2876 3.27829 16.1362 2.90968 16.1362 2.46866C16.1362 2.02764 16.2876 1.65903 16.5838 1.36282C16.8801 1.06661 17.2487 0.915222 17.6897 0.915222C18.1307 0.915222 18.4796 1.06661 18.7758 1.36282C19.072 1.65903 19.2234 2.02764 19.2234 2.46866C19.2234 2.90968 19.072 3.27829 18.7758 3.5745C18.4796 3.87071 18.1175 4.0221 17.6897 4.0221C17.2618 4.0221 16.8801 3.87071 16.5838 3.5745ZM18.8811 5.57558V17.2988H16.4588V5.57558H18.8811Z" fill="white"/>
<path d="M28.3583 5.9244C29.0626 6.28644 29.6089 6.73403 30.0039 7.27379V5.56897H32.4525V17.4831C32.4525 18.5626 32.2287 19.5237 31.7746 20.3662C31.3204 21.2088 30.6621 21.8736 29.8064 22.3541C28.9507 22.8346 27.9238 23.0782 26.7324 23.0782C25.1461 23.0782 23.823 22.703 22.7764 21.9591C21.7298 21.2153 21.1308 20.2016 20.9926 18.9247H23.3951C23.5794 19.5368 23.9744 20.0239 24.5734 20.4057C25.179 20.7809 25.8965 20.9718 26.7324 20.9718C27.7132 20.9718 28.5031 20.6756 29.1021 20.0766C29.7077 19.4842 30.0039 18.6153 30.0039 17.4831V15.5282C29.5892 16.0811 29.0363 16.5484 28.3319 16.9236C27.6276 17.2988 26.8312 17.4897 25.936 17.4897C24.9157 17.4897 23.981 17.233 23.1384 16.713C22.2959 16.193 21.6311 15.4755 21.1374 14.5408C20.6503 13.6127 20.4067 12.5595 20.4067 11.3812C20.4067 10.203 20.6503 9.16293 21.1374 8.25456C21.6245 7.34619 22.2959 6.64189 23.1384 6.13504C23.981 5.63478 24.9157 5.37805 25.936 5.37805C26.8443 5.37805 27.6474 5.55578 28.3517 5.91781L28.3583 5.9244ZM29.5036 9.32095C29.1679 8.72853 28.7335 8.27434 28.1937 7.95839C27.654 7.64901 27.0747 7.49102 26.4494 7.49102C25.8241 7.49102 25.2448 7.64242 24.7051 7.94521C24.1653 8.248 23.7308 8.69559 23.3951 9.288C23.0594 9.87384 22.8949 10.5782 22.8949 11.3812C22.8949 12.1843 23.0594 12.9018 23.3951 13.5074C23.7308 14.1195 24.1653 14.5803 24.7116 14.9028C25.258 15.2188 25.8372 15.3833 26.4428 15.3833C27.0484 15.3833 27.6474 15.2254 28.1871 14.916C28.7269 14.6066 29.1613 14.1458 29.497 13.5468C29.8327 12.9413 29.9973 12.2369 29.9973 11.4273C29.9973 10.6177 29.8327 9.91995 29.497 9.32095H29.5036Z" fill="white"/>
<path d="M37.2177 1.55371V17.2923H34.7954V1.55371H37.2177Z" fill="white"/>
<path d="M50.2129 12.3423H41.2542C41.3266 13.277 41.6755 14.0273 42.2942 14.6C42.9196 15.1661 43.6831 15.4492 44.5915 15.4492C45.8948 15.4492 46.8164 14.9028 47.3561 13.8101H49.9693C49.6139 14.8896 48.9754 15.7717 48.0473 16.4563C47.1191 17.1474 45.9672 17.4897 44.5915 17.4897C43.4725 17.4897 42.4654 17.2396 41.5833 16.7327C40.6947 16.2324 40.0036 15.5216 39.4967 14.6066C38.9965 13.6917 38.7397 12.6319 38.7397 11.4273C38.7397 10.2227 38.9833 9.16297 39.4704 8.24802C39.9575 7.33306 40.6486 6.62872 41.5307 6.12846C42.4193 5.63478 43.433 5.38464 44.5849 5.38464C45.7368 5.38464 46.6781 5.62822 47.5404 6.10873C48.4027 6.58925 49.0807 7.26721 49.5612 8.14267C50.0417 9.01155 50.2853 10.0187 50.2853 11.1508C50.2853 11.5919 50.2589 11.9868 50.1997 12.3423H50.2129ZM47.7642 10.3807C47.7511 9.4855 47.4285 8.7746 46.8098 8.23484C46.1844 7.69508 45.4143 7.42521 44.4928 7.42521C43.6568 7.42521 42.9393 7.68849 42.3469 8.22166C41.7545 8.75484 41.399 9.47234 41.2805 10.3807H47.7708H47.7642Z" fill="white"/>
<path d="M51.7519 8.25456C52.239 7.34619 52.9104 6.64189 53.753 6.13504C54.5955 5.63478 55.5302 5.37805 56.5505 5.37805C57.472 5.37805 58.2751 5.55578 58.9662 5.91781C59.6508 6.27985 60.2037 6.72744 60.6118 7.2672V5.56238H63.0605V17.2856H60.6118V15.5413C60.1971 16.0942 59.6376 16.555 58.9333 16.9236C58.2224 17.2922 57.4128 17.4765 56.511 17.4765C55.5039 17.4765 54.5823 17.2198 53.7464 16.6998C52.9104 16.1798 52.2456 15.4623 51.7585 14.5276C51.2714 13.5995 51.0278 12.5463 51.0278 11.3681C51.0278 10.1898 51.2714 9.1498 51.7585 8.24142L51.7519 8.25456ZM60.1115 9.32095C59.7758 8.72853 59.3414 8.27434 58.8017 7.95839C58.2619 7.64901 57.6827 7.49102 57.0573 7.49102C56.432 7.49102 55.8527 7.64242 55.313 7.94521C54.7732 8.248 54.3388 8.69559 54.0031 9.288C53.6674 9.87384 53.5028 10.5782 53.5028 11.3812C53.5028 12.1843 53.6674 12.9018 54.0031 13.5074C54.3388 14.1195 54.7732 14.5803 55.3196 14.9028C55.8659 15.2188 56.4452 15.3833 57.0507 15.3833C57.6563 15.3833 58.2553 15.2254 58.7951 14.916C59.3348 14.6066 59.7693 14.1458 60.105 13.5468C60.4407 12.9413 60.6052 12.2369 60.6052 11.4273C60.6052 10.6177 60.4407 9.91995 60.105 9.32095H60.1115Z" fill="white"/>
<path d="M67.5497 15.3175H72.8683V17.2988H64.7456V15.3175L70.084 7.55028H64.7456V5.56897H72.8683V7.55028L67.5497 15.3175Z" fill="white"/>
</svg>
