<svg width="59" height="58" viewBox="0 0 59 58" fill="none" xmlns="http://www.w3.org/2000/svg">
<path d="M58.7452 21.3872H55.7286C52.1176 10.6372 41.9469 2.8737 30.0007 2.8737C16.0084 2.8737 4.461 13.5184 3.02415 27.127C2.92635 28.0674 2.87369 29.0303 2.87369 30.0007H0C0 28.9476 0.0526602 27.8794 0.165502 26.8262C0.940345 19.5065 4.38577 12.736 9.87738 7.76349C15.4066 2.75333 22.5532 0 30.0007 0C42.9023 0 54.3369 8.22239 58.4518 20.4694C58.5571 20.7703 58.6474 21.0788 58.7452 21.3872Z" fill="#FDFDFD"/>
<path d="M39.4197 21.3872H34.8684C33.4316 20.5748 31.769 20.1084 30.0012 20.1084C25.5402 20.1084 21.7638 23.0723 20.53 27.1346C20.2517 28.0449 20.1012 29.0078 20.1012 30.0083H17.2275C17.2275 29.0228 17.3404 28.0599 17.551 27.1346C18.86 21.47 23.9378 17.2422 29.9937 17.2422C33.7174 17.2422 37.0726 18.8445 39.4121 21.3948L39.4197 21.3872Z" fill="#FDFDFD"/>
<path d="M46.3924 21.3872H43.0448C40.2463 17.1594 35.4393 14.361 30.0003 14.361C22.3572 14.361 15.9779 19.8752 14.6238 27.1271C14.4508 28.0599 14.3605 29.0153 14.3605 30.0008H11.4868C11.4868 29.0228 11.562 28.0674 11.7125 27.1271C13.0892 18.2653 20.7548 11.4873 30.0003 11.4873C37.1168 11.4873 43.293 15.4969 46.3924 21.3797V21.3872Z" fill="#FDFDFD"/>
<path d="M52.6739 21.3869H49.567C46.2495 13.8716 38.7267 8.62077 29.9928 8.62077C19.1751 8.62077 10.208 16.6927 8.80122 27.1343C8.67333 28.0746 8.60563 29.03 8.60563 30.008H5.73193C5.73193 29.0375 5.79212 28.0746 5.90497 27.1343C7.32677 15.1054 17.5878 5.74707 29.9928 5.74707C40.3366 5.74707 49.1834 12.2542 52.6664 21.3869H52.6739Z" fill="#FDFDFD"/>
<path d="M57.1291 30.0084C57.1291 30.9789 57.0764 31.9342 56.9786 32.8821C56.9636 33.01 56.9486 33.1454 56.9335 33.2733C56.8357 34.1083 56.6928 34.9434 56.5198 35.7558C53.8793 47.9652 42.9939 57.143 30.0021 57.143C16.0097 57.143 4.46231 46.4983 3.02546 32.8896C2.92767 31.9493 2.875 30.9864 2.875 30.0159H5.7487C5.7487 30.9864 5.80888 31.9493 5.92172 32.8896C7.34352 44.9185 17.6046 54.2768 30.0096 54.2768C41.4066 54.2768 50.9905 46.3779 53.5784 35.7633C53.8116 34.823 53.9846 33.8676 54.0974 32.8896C54.2103 31.9493 54.2704 30.9864 54.2704 30.0159V27.1423H39.4807C39.1648 26.1041 38.6833 25.1337 38.0665 24.2686H56.5273C56.7304 25.2089 56.8884 26.1643 56.9862 27.1423C57.084 28.0826 57.1366 29.0455 57.1366 30.0159L57.1291 30.0084Z" fill="#FDFDFD"/>
<path d="M51.3862 30.0083C51.3862 30.9787 51.3185 31.9417 51.1906 32.882C51.0552 33.86 50.8596 34.8229 50.5963 35.7557C48.0837 44.768 39.8012 51.3955 29.999 51.3955C19.1813 51.3955 10.2142 43.3236 8.8074 32.882C8.67952 31.9417 8.61182 30.9863 8.61182 30.0083H11.4855C11.4855 30.9863 11.5607 31.9417 11.7112 32.882C13.0879 41.7438 20.7535 48.5218 29.999 48.5218C38.2214 48.5218 45.1874 43.1656 47.6023 35.7557C47.9032 34.8304 48.1364 33.8675 48.2868 32.882H29.999V30.0083H51.3862Z" fill="#FDFDFD"/>
<path d="M44.5506 35.7479C42.2562 41.5404 36.5991 45.6403 30.0016 45.6403C22.3585 45.6403 15.9792 40.1261 14.6251 32.8742C14.4521 31.9414 14.3618 30.986 14.3618 30.0005H17.2355C17.2355 30.986 17.3483 31.9489 17.559 32.8742C18.8679 38.5388 23.9458 42.7666 30.0016 42.7666C34.9742 42.7666 39.2997 39.908 41.4061 35.7404H44.5506V35.7479Z" fill="#FDFDFD"/>
</svg>
