<svg width="84" height="27" viewBox="0 0 84 27" fill="none" xmlns="http://www.w3.org/2000/svg">
<path d="M13.4909 7.59055C13.0546 6.74801 12.4452 6.10854 11.6704 5.67975C10.8955 5.25095 9.9928 5.0328 8.9697 5.0328C7.84881 5.0328 6.85581 5.28105 5.98317 5.78507C5.11053 6.2891 4.42597 7.00378 3.92947 7.92156C3.43297 8.84686 3.1847 9.91506 3.1847 11.1337C3.1847 12.3524 3.43297 13.4207 3.92947 14.3535C4.42597 15.2863 5.11053 16.001 5.98317 16.505C6.85581 17.009 7.85633 17.2573 8.9697 17.2573C10.4743 17.2573 11.7005 16.836 12.6408 15.9935C13.5812 15.1509 14.1529 14.0075 14.3635 12.5631H8.02183V10.3514H17.335V12.5179C17.1545 13.8344 16.6881 15.0381 15.9358 16.1439C15.1835 17.2498 14.198 18.1224 12.9944 18.7844C11.7832 19.4389 10.4442 19.7699 8.9697 19.7699C7.3824 19.7699 5.93051 19.4013 4.62155 18.664C3.31259 17.9268 2.26693 16.9037 1.49961 15.5872C0.732292 14.2708 0.348633 12.7888 0.348633 11.1413C0.348633 9.49379 0.732292 8.0043 1.49961 6.69534C2.26693 5.37886 3.31258 4.35575 4.63659 3.61852C5.96059 2.88129 7.40498 2.5127 8.97723 2.5127C10.7752 2.5127 12.3775 2.9565 13.7768 3.83666C15.176 4.71682 16.1991 5.97316 16.831 7.59055H13.4984H13.4909Z" fill="#FDFDFD"/>
<path d="M19.2308 3.94201C18.8923 3.60348 18.7192 3.18222 18.7192 2.67819C18.7192 2.17417 18.8923 1.7529 19.2308 1.41437C19.5693 1.07585 19.9906 0.902832 20.4946 0.902832C20.9986 0.902832 21.3973 1.07585 21.7359 1.41437C22.0744 1.7529 22.2474 2.17417 22.2474 2.67819C22.2474 3.18222 22.0744 3.60348 21.7359 3.94201C21.3973 4.28053 20.9836 4.45355 20.4946 4.45355C20.0056 4.45355 19.5693 4.28053 19.2308 3.94201ZM21.8562 6.22895V19.627H19.0879V6.22895H21.8562Z" fill="#FDFDFD"/>
<path d="M32.6905 6.62782C33.4954 7.04157 34.1198 7.55311 34.5712 8.16997V6.22161H37.3697V19.8378C37.3697 21.0715 37.1139 22.1698 36.5948 23.1327C36.0757 24.0957 35.3235 24.8555 34.3455 25.4046C33.3676 25.9538 32.194 26.2321 30.8324 26.2321C29.0194 26.2321 27.5073 25.8033 26.3112 24.9532C25.1151 24.1032 24.4305 22.9447 24.2725 21.4853H27.0183C27.229 22.1849 27.6803 22.7416 28.3649 23.1779C29.057 23.6067 29.877 23.8248 30.8324 23.8248C31.9533 23.8248 32.856 23.4863 33.5406 22.8017C34.2327 22.1247 34.5712 21.1317 34.5712 19.8378V17.6035C34.0973 18.2354 33.4653 18.7696 32.6604 19.1984C31.8555 19.6272 30.9452 19.8453 29.9221 19.8453C28.7561 19.8453 27.6879 19.5519 26.725 18.9576C25.7621 18.3633 25.0022 17.5434 24.438 16.4751C23.8814 15.4144 23.603 14.2107 23.603 12.8642C23.603 11.5176 23.8814 10.329 24.438 9.29086C24.9947 8.25272 25.7621 7.44781 26.725 6.86855C27.6879 6.29682 28.7561 6.00342 29.9221 6.00342C30.9603 6.00342 31.878 6.20654 32.683 6.62029L32.6905 6.62782ZM33.9995 10.5096C33.6158 9.83254 33.1193 9.31346 32.5024 8.95237C31.8856 8.5988 31.2236 8.41824 30.5089 8.41824C29.7942 8.41824 29.1323 8.59126 28.5154 8.93731C27.8985 9.28336 27.402 9.79489 27.0183 10.4719C26.6347 11.1415 26.4466 11.9464 26.4466 12.8642C26.4466 13.7819 26.6347 14.602 27.0183 15.294C27.402 15.9937 27.8985 16.5203 28.5229 16.8889C29.1473 17.25 29.8093 17.438 30.5014 17.438C31.1935 17.438 31.878 17.2575 32.4949 16.9039C33.1118 16.5504 33.6083 16.0238 33.9919 15.3392C34.3756 14.6471 34.5637 13.8421 34.5637 12.9168C34.5637 11.9915 34.3756 11.1942 33.9919 10.5096H33.9995Z" fill="#FDFDFD"/>
<path d="M42.8133 1.63281V19.6197H40.0449V1.63281H42.8133Z" fill="#FDFDFD"/>
<path d="M57.6664 13.9623H47.4279C47.5106 15.0305 47.9093 15.8881 48.6165 16.5426C49.3311 17.1896 50.2038 17.5131 51.2419 17.5131C52.7314 17.5131 53.7846 16.8886 54.4015 15.6399H57.388C56.9818 16.8736 56.2521 17.8817 55.1914 18.664C54.1307 19.4539 52.8142 19.8451 51.2419 19.8451C49.963 19.8451 48.8121 19.5592 47.804 18.98C46.7884 18.4082 45.9986 17.5958 45.4193 16.5501C44.8476 15.5045 44.5542 14.2933 44.5542 12.9166C44.5542 11.54 44.8325 10.3288 45.3892 9.28317C45.9459 8.2375 46.7358 7.43255 47.7438 6.86082C48.7594 6.29661 49.9179 6.01074 51.2344 6.01074C52.5509 6.01074 53.6266 6.28911 54.6121 6.83827C55.5976 7.38743 56.3724 8.16225 56.9216 9.16278C57.4707 10.1558 57.7491 11.3068 57.7491 12.6007C57.7491 13.1047 57.719 13.5561 57.6513 13.9623H57.6664ZM54.8679 11.7205C54.8528 10.6974 54.4842 9.88497 53.7771 9.26811C53.0624 8.65124 52.1823 8.34282 51.1291 8.34282C50.1737 8.34282 49.3537 8.6437 48.6767 9.25305C47.9996 9.86239 47.5934 10.6824 47.458 11.7205H54.8754H54.8679Z" fill="#FDFDFD"/>
<path d="M59.4261 9.29086C59.9828 8.25272 60.7502 7.44781 61.7131 6.86855C62.676 6.29682 63.7442 6.00342 64.9102 6.00342C65.9634 6.00342 66.8812 6.20654 67.6711 6.62029C68.4534 7.03404 69.0854 7.54558 69.5518 8.16244V6.21408H72.3502V19.6121H69.5518V17.6186C69.0778 18.2505 68.4384 18.7771 67.6335 19.1984C66.821 19.6196 65.8957 19.8302 64.8651 19.8302C63.7141 19.8302 62.6609 19.5369 61.7055 18.9426C60.7501 18.3483 59.9904 17.5283 59.4337 16.4601C58.877 15.3994 58.5986 14.1957 58.5986 12.8492C58.5986 11.5026 58.877 10.314 59.4337 9.27584L59.4261 9.29086ZM68.98 10.5096C68.5964 9.83254 68.0999 9.31346 67.483 8.95237C66.8661 8.5988 66.2041 8.41824 65.4895 8.41824C64.7748 8.41824 64.1128 8.59126 63.496 8.93731C62.8791 9.28336 62.3826 9.79489 61.9989 10.4719C61.6152 11.1415 61.4272 11.9464 61.4272 12.8642C61.4272 13.7819 61.6152 14.602 61.9989 15.294C62.3826 15.9937 62.8791 16.5203 63.5035 16.8889C64.1278 17.25 64.7899 17.438 65.4819 17.438C66.174 17.438 66.8586 17.2575 67.4755 16.9039C68.0923 16.5504 68.5889 16.0238 68.9725 15.3392C69.3562 14.6471 69.5442 13.8421 69.5442 12.9168C69.5442 11.9915 69.3562 11.1942 68.9725 10.5096H68.98Z" fill="#FDFDFD"/>
<path d="M77.4776 17.3629H83.556V19.6272H74.2729V17.3629L80.3739 8.48604H74.2729V6.22168H83.556V8.48604L77.4776 17.3629Z" fill="#FDFDFD"/>
</svg>
