<svg width="19" height="20" viewBox="0 0 19 20" fill="none" xmlns="http://www.w3.org/2000/svg">
<path fill-rule="evenodd" clip-rule="evenodd" d="M9.31364 0.972168C6.86186 0.972168 6.55416 0.982888 5.5912 1.02671C4.63013 1.07072 3.97411 1.22288 3.4001 1.44612C2.80634 1.67671 2.30267 1.98515 1.80087 2.48713C1.29871 2.98892 0.990259 3.4926 0.758924 4.08617C0.535111 4.66037 0.382769 5.31657 0.339511 6.27727C0.296441 7.24023 0.285156 7.54812 0.285156 9.9999C0.285156 12.4517 0.296065 12.7584 0.339699 13.7214C0.383897 14.6825 0.536052 15.3385 0.759112 15.9125C0.989883 16.5063 1.29833 17.0099 1.80031 17.5117C2.30191 18.0139 2.80558 18.3231 3.39897 18.5537C3.97336 18.7769 4.62956 18.9291 5.59045 18.9731C6.55341 19.0169 6.86092 19.0276 9.31251 19.0276C11.7645 19.0276 12.0712 19.0169 13.0342 18.9731C13.9953 18.9291 14.652 18.7769 15.2264 18.5537C15.82 18.3231 16.3229 18.0139 16.8245 17.5117C17.3267 17.0099 17.6351 16.5063 17.8665 15.9127C18.0884 15.3385 18.2407 14.6823 18.2859 13.7216C18.3291 12.7586 18.3404 12.4517 18.3404 9.9999C18.3404 7.54812 18.3291 7.24042 18.2859 6.27746C18.2407 5.31639 18.0884 4.66037 17.8665 4.08636C17.6351 3.4926 17.3267 2.98892 16.8245 2.48713C16.3224 1.98497 15.8202 1.67652 15.2259 1.44612C14.6503 1.22288 13.9939 1.07072 13.0329 1.02671C12.0699 0.982888 11.7633 0.972168 9.31082 0.972168H9.31364ZM8.50373 2.59901C8.7441 2.59864 9.0123 2.59901 9.3136 2.59901C11.724 2.59901 12.0097 2.60767 12.9616 2.65092C13.8418 2.69117 14.3195 2.83825 14.6377 2.96182C15.059 3.12544 15.3594 3.32104 15.6751 3.63702C15.9911 3.95299 16.1867 4.25391 16.3507 4.6752C16.4743 4.99306 16.6215 5.47077 16.6616 6.35098C16.7049 7.30265 16.7143 7.58853 16.7143 9.9978C16.7143 12.4071 16.7049 12.693 16.6616 13.6446C16.6214 14.5248 16.4743 15.0026 16.3507 15.3204C16.1871 15.7417 15.9911 16.0417 15.6751 16.3575C15.3592 16.6734 15.0592 16.869 14.6377 17.0327C14.3198 17.1568 13.8418 17.3035 12.9616 17.3437C12.0099 17.387 11.724 17.3964 9.3136 17.3964C6.90301 17.3964 6.61732 17.387 5.66564 17.3437C4.78544 17.3031 4.30772 17.156 3.98931 17.0325C3.56801 16.8688 3.26709 16.6732 2.95112 16.3573C2.63515 16.0413 2.43955 15.7411 2.27554 15.3196C2.15198 15.0018 2.00471 14.5241 1.96465 13.6439C1.92139 12.6922 1.91274 12.4063 1.91274 9.99555C1.91274 7.58477 1.92139 7.30039 1.96465 6.34872C2.0049 5.46852 2.15198 4.9908 2.27554 4.67257C2.43917 4.25128 2.63515 3.95035 2.95112 3.63438C3.26709 3.31841 3.56801 3.12281 3.98931 2.95881C4.30753 2.83468 4.78544 2.68798 5.66564 2.64754C6.49845 2.60992 6.82119 2.59864 8.50373 2.59676V2.59901ZM14.1325 4.098C13.5344 4.098 13.0492 4.58267 13.0492 5.18095C13.0492 5.77904 13.5344 6.26428 14.1325 6.26428C14.7306 6.26428 15.2159 5.77904 15.2159 5.18095C15.2159 4.58286 14.7306 4.098 14.1325 4.098ZM9.31365 5.36376C6.75335 5.36376 4.67754 7.43957 4.67754 9.99987C4.67754 12.5602 6.75335 14.635 9.31365 14.635C11.874 14.635 13.949 12.5602 13.949 9.99987C13.949 7.43957 11.874 5.36376 9.31365 5.36376ZM9.31362 6.99063C10.9755 6.99063 12.3229 8.33783 12.3229 9.99987C12.3229 11.6617 10.9755 13.0091 9.31362 13.0091C7.65157 13.0091 6.30437 11.6617 6.30437 9.99987C6.30437 8.33783 7.65157 6.99063 9.31362 6.99063Z" fill="#FDFDFD"/>
</svg>
