<svg width="23" height="24" viewBox="0 0 23 24" fill="none" xmlns="http://www.w3.org/2000/svg">
<path d="M20.0888 0.891602C20.7435 0.891602 21.3713 1.15167 21.8343 1.61461C22.2972 2.07754 22.5573 2.70541 22.5573 3.3601V20.6396C22.5573 21.2942 22.2972 21.9221 21.8343 22.385C21.3713 22.848 20.7435 23.108 20.0888 23.108H2.80931C2.15463 23.108 1.52676 22.848 1.06383 22.385C0.600893 21.9221 0.34082 21.2942 0.34082 20.6396V3.3601C0.34082 2.70541 0.600893 2.07754 1.06383 1.61461C1.52676 1.15167 2.15463 0.891602 2.80931 0.891602H20.0888ZM19.4716 20.0224V13.4809C19.4716 12.4138 19.0477 11.3904 18.2931 10.6358C17.5386 9.88119 16.5151 9.45727 15.448 9.45727C14.3989 9.45727 13.177 10.0991 12.5845 11.0618V9.69178H9.141V20.0224H12.5845V13.9376C12.5845 12.9872 13.3498 12.2096 14.3002 12.2096C14.7584 12.2096 15.1979 12.3917 15.522 12.7157C15.846 13.0398 16.0281 13.4793 16.0281 13.9376V20.0224H19.4716ZM5.1297 7.75401C5.67963 7.75401 6.20705 7.53555 6.59591 7.14669C6.98477 6.75783 7.20323 6.23042 7.20323 5.68048C7.20323 4.53263 6.27755 3.5946 5.1297 3.5946C4.57649 3.5946 4.04594 3.81436 3.65476 4.20554C3.26358 4.59672 3.04382 5.12727 3.04382 5.68048C3.04382 6.82833 3.98185 7.75401 5.1297 7.75401ZM6.8453 20.0224V9.69178H3.42644V20.0224H6.8453Z" fill="#FDFDFD"/>
</svg>
