<svg width="34" height="34" viewBox="0 0 34 34" fill="none" xmlns="http://www.w3.org/2000/svg">
<g clip-path="url(#clip0_2369_132)">
<path fill-rule="evenodd" clip-rule="evenodd" d="M15.3056 3.25C13.442 3.25016 11.6053 3.696 9.949 4.55033C8.29266 5.40466 6.86465 6.6427 5.7841 8.16116C4.70354 9.67962 4.00178 11.4345 3.73737 13.2793C3.47296 15.1241 3.65355 17.0055 4.26409 18.7663C4.87463 20.5271 5.89741 22.1164 7.2471 23.4016C8.59678 24.6868 10.2342 25.6306 12.0229 26.1542C13.8115 26.6778 15.6994 26.7661 17.529 26.4118C19.3587 26.0574 21.0771 25.2706 22.5409 24.117L27.5624 29.1385C27.8217 29.389 28.1691 29.5276 28.5296 29.5244C28.8901 29.5213 29.235 29.3767 29.4899 29.1218C29.7448 28.8668 29.8894 28.5219 29.8926 28.1614C29.8957 27.8009 29.7571 27.4536 29.5066 27.1942L24.4851 22.1728C25.8436 20.4494 26.6895 18.3783 26.9259 16.1966C27.1623 14.0149 26.7797 11.8108 25.822 9.83638C24.8642 7.86198 23.3699 6.19711 21.5101 5.03232C19.6503 3.86752 17.5001 3.24985 15.3056 3.25ZM6.36815 14.9375C6.36815 12.5671 7.30977 10.2938 8.98588 8.61773C10.662 6.94163 12.9353 6 15.3056 6C17.676 6 19.9493 6.94163 21.6254 8.61773C23.3015 10.2938 24.2431 12.5671 24.2431 14.9375C24.2431 17.3079 23.3015 19.5812 21.6254 21.2573C19.9493 22.9334 17.676 23.875 15.3056 23.875C12.9353 23.875 10.662 22.9334 8.98588 21.2573C7.30977 19.5812 6.36815 17.3079 6.36815 14.9375Z" fill="#FAFAFA"/>
</g>
<defs>
<clipPath id="clip0_2369_132">
<rect width="33" height="33" fill="white" transform="translate(0.868164 0.5)"/>
</clipPath>
</defs>
</svg>
