<svg width="34" height="34" viewBox="0 0 34 34" fill="none" xmlns="http://www.w3.org/2000/svg">
<path d="M30.2943 23.2545C30.7323 23.2547 31.1535 23.4235 31.4706 23.7258C31.7876 24.0281 31.9762 24.4408 31.9972 24.8783C32.0183 25.3159 31.8702 25.7448 31.5836 26.0761C31.2971 26.4074 30.894 26.6158 30.458 26.6581L30.2943 26.6661H3.82895C3.39089 26.6659 2.9697 26.4971 2.65267 26.1948C2.33563 25.8925 2.14705 25.4798 2.126 25.0423C2.10494 24.6047 2.25304 24.1758 2.53959 23.8445C2.82614 23.5132 3.22918 23.3048 3.6652 23.2625L3.82895 23.2545H30.2943ZM30.2943 15.2943C30.7467 15.2943 31.1805 15.474 31.5004 15.7939C31.8203 16.1138 32 16.5476 32 17C32 17.4524 31.8203 17.8863 31.5004 18.2062C31.1805 18.5261 30.7467 18.7058 30.2943 18.7058H20.3698C19.9174 18.7058 19.4835 18.5261 19.1636 18.2062C18.8437 17.8863 18.664 17.4524 18.664 17C18.664 16.5476 18.8437 16.1138 19.1636 15.7939C19.4835 15.474 19.9174 15.2943 20.3698 15.2943H30.2943ZM30.2943 7.33398C30.7467 7.33398 31.1805 7.5137 31.5004 7.83359C31.8203 8.15349 32 8.58736 32 9.03976C32 9.49216 31.8203 9.92603 31.5004 10.2459C31.1805 10.5658 30.7467 10.7455 30.2943 10.7455H12.0994C11.647 10.7455 11.2131 10.5658 10.8932 10.2459C10.5733 9.92603 10.3936 9.49216 10.3936 9.03976C10.3936 8.58736 10.5733 8.15349 10.8932 7.83359C11.2131 7.5137 11.647 7.33398 12.0994 7.33398H30.2943Z" fill="#FAFAFA"/>
</svg>
