<svg width="31" height="30" viewBox="0 0 31 30" fill="none" xmlns="http://www.w3.org/2000/svg">
<path opacity="0.1" fill-rule="evenodd" clip-rule="evenodd" d="M0.712891 14.999C0.712891 6.71475 7.42862 -0.000976562 15.7129 -0.000976562C23.9972 -0.000976562 30.7129 6.71475 30.7129 14.999C30.7129 23.2833 23.9972 29.999 15.7129 29.999C7.42862 29.999 0.712891 23.2833 0.712891 14.999Z" fill="#FDFDFD"/>
<path fill-rule="evenodd" clip-rule="evenodd" d="M15.7151 6.99805C13.5424 6.99805 13.2697 7.00755 12.4164 7.04638C11.5647 7.08538 10.9834 7.22022 10.4747 7.41805C9.94855 7.62239 9.50221 7.89572 9.05754 8.34056C8.61253 8.78523 8.3392 9.23157 8.13419 9.75758C7.93586 10.2664 7.80086 10.8479 7.76252 11.6993C7.72436 12.5526 7.71436 12.8254 7.71436 14.9981C7.71436 17.1708 7.72402 17.4427 7.76269 18.296C7.80186 19.1477 7.93669 19.729 8.13436 20.2377C8.33886 20.7639 8.6122 21.2102 9.05704 21.6549C9.50154 22.0999 9.94788 22.3739 10.4737 22.5782C10.9827 22.776 11.5642 22.9109 12.4157 22.9499C13.2691 22.9887 13.5416 22.9982 15.7141 22.9982C17.887 22.9982 18.1588 22.9887 19.0121 22.9499C19.8638 22.9109 20.4458 22.776 20.9548 22.5782C21.4808 22.3739 21.9265 22.0999 22.371 21.6549C22.816 21.2102 23.0893 20.7639 23.2944 20.2379C23.491 19.729 23.626 19.1475 23.666 18.2962C23.7044 17.4428 23.7144 17.1708 23.7144 14.9981C23.7144 12.8254 23.7044 12.5528 23.666 11.6994C23.626 10.8478 23.491 10.2664 23.2944 9.75774C23.0893 9.23157 22.816 8.78523 22.371 8.34056C21.926 7.89556 21.481 7.62222 20.9543 7.41805C20.4443 7.22022 19.8626 7.08538 19.011 7.04638C18.1576 7.00755 17.886 6.99805 15.7126 6.99805H15.7151ZM14.9974 8.43971C15.2104 8.43937 15.4481 8.43971 15.7151 8.43971C17.8511 8.43971 18.1043 8.44737 18.9478 8.48571C19.7278 8.52137 20.1511 8.65171 20.4331 8.76121C20.8065 8.90621 21.0726 9.07955 21.3525 9.35955C21.6325 9.63955 21.8058 9.90622 21.9511 10.2796C22.0606 10.5612 22.1911 10.9846 22.2266 11.7646C22.265 12.6079 22.2733 12.8613 22.2733 14.9963C22.2733 17.1313 22.265 17.3846 22.2266 18.228C22.191 19.008 22.0606 19.4313 21.9511 19.713C21.8061 20.0863 21.6325 20.3522 21.3525 20.632C21.0725 20.912 20.8066 21.0853 20.4331 21.2303C20.1515 21.3403 19.7278 21.4703 18.9478 21.506C18.1044 21.5443 17.8511 21.5527 15.7151 21.5527C13.5789 21.5527 13.3257 21.5443 12.4824 21.506C11.7024 21.47 11.279 21.3397 10.9969 21.2302C10.6235 21.0852 10.3568 20.9118 10.0768 20.6318C9.79684 20.3518 9.62351 20.0858 9.47817 19.7123C9.36867 19.4307 9.23817 19.0073 9.20267 18.2273C9.16434 17.384 9.15667 17.1306 9.15667 14.9943C9.15667 12.8579 9.16434 12.6059 9.20267 11.7626C9.23834 10.9826 9.36867 10.5592 9.47817 10.2772C9.62317 9.90389 9.79684 9.63722 10.0768 9.35722C10.3568 9.07721 10.6235 8.90388 10.9969 8.75854C11.2789 8.64854 11.7024 8.51854 12.4824 8.48271C13.2204 8.44937 13.5064 8.43937 14.9974 8.43771V8.43971ZM19.9855 9.76806C19.4554 9.76806 19.0254 10.1976 19.0254 10.7277C19.0254 11.2577 19.4554 11.6877 19.9855 11.6877C20.5155 11.6877 20.9455 11.2577 20.9455 10.7277C20.9455 10.1977 20.5155 9.76806 19.9855 9.76806ZM15.7151 10.8897C13.4463 10.8897 11.6067 12.7293 11.6067 14.9981C11.6067 17.267 13.4463 19.1057 15.7151 19.1057C17.984 19.1057 19.8228 17.267 19.8228 14.9981C19.8228 12.7293 17.984 10.8897 15.7151 10.8897ZM15.7151 12.3314C17.1878 12.3314 18.3818 13.5253 18.3818 14.9981C18.3818 16.4708 17.1878 17.6648 15.7151 17.6648C14.2422 17.6648 13.0484 16.4708 13.0484 14.9981C13.0484 13.5253 14.2422 12.3314 15.7151 12.3314Z" fill="#FDFDFD"/>
</svg>
