<svg width="19" height="14" viewBox="0 0 19 14" fill="none" xmlns="http://www.w3.org/2000/svg">
<path fill-rule="evenodd" clip-rule="evenodd" d="M16.5245 0.898663C17.3014 1.11185 17.9132 1.73999 18.1208 2.53767C18.4981 3.98337 18.4981 6.99984 18.4981 6.99984C18.4981 6.99984 18.4981 10.0162 18.1208 11.462C17.9132 12.2597 17.3014 12.8878 16.5245 13.1011C15.1166 13.4885 9.47051 13.4885 9.47051 13.4885C9.47051 13.4885 3.82444 13.4885 2.41644 13.1011C1.63955 12.8878 1.02772 12.2597 0.820083 11.462C0.442871 10.0162 0.442871 6.99984 0.442871 6.99984C0.442871 6.99984 0.442871 3.98337 0.820083 2.53767C1.02772 1.73999 1.63955 1.11185 2.41644 0.898663C3.82444 0.51123 9.47051 0.51123 9.47051 0.51123C9.47051 0.51123 15.1166 0.51123 16.5245 0.898663ZM7.77784 4.46076V10.103L12.2917 7.282L7.77784 4.46076Z" fill="#FDFDFD"/>
</svg>
