<svg width="320" height="390" viewBox="0 0 320 390" fill="none" xmlns="http://www.w3.org/2000/svg">
<g filter="url(#filter0_d_487_79)">
<g clip-path="url(#clip0_487_79)">
<rect x="20.5" y="20" width="279" height="350" rx="35" fill="#E7FFFF" fill-opacity="0.5"/>
<path d="M306.599 270.545H70.755C66.688 270.545 63.3906 267.248 63.3906 263.181V110.863C63.3906 106.796 66.688 103.499 70.755 103.499H306.599C310.666 103.499 313.964 106.796 313.964 110.863V263.181C313.964 267.248 310.667 270.545 306.599 270.545Z" fill="#F5F5F5" fill-opacity="0.5"/>
<path d="M301.839 266.012H74.8371C70.7701 266.012 67.4727 262.715 67.4727 258.648V114.945C67.4727 110.878 70.7694 107.58 74.8371 107.58H301.838C305.905 107.58 309.203 110.877 309.203 114.945V258.648C309.203 262.715 305.906 266.012 301.839 266.012Z" fill="#E0E0E0" fill-opacity="0.5"/>
<path d="M303.502 156.349H71.1113V243.871H303.502V156.349Z" fill="white"/>
<path d="M262.16 321.395H26.3156C22.2486 321.395 18.9512 318.098 18.9512 314.031V161.714C18.9512 157.647 22.2479 154.349 26.3156 154.349H262.16C266.227 154.349 269.524 157.646 269.524 161.714V314.031C269.524 318.098 266.227 321.395 262.16 321.395Z" fill="#F5F5F5" fill-opacity="0.5"/>
<path d="M257.399 316.862H30.3976C26.3306 316.862 23.0332 313.565 23.0332 309.498V165.795C23.0332 161.728 26.3306 158.43 30.3976 158.43H257.399C261.466 158.43 264.763 161.727 264.763 165.795V309.498C264.763 313.565 261.466 316.862 257.399 316.862Z" fill="#E0E0E0" fill-opacity="0.5"/>
<path d="M259.063 207.198H26.6719V294.721H259.063V207.198Z" fill="white"/>
<g opacity="0.4">
<path d="M294.423 95.9983C318.195 138.006 314.067 192.734 289.032 234.001C263.996 275.268 220.322 303.356 173.511 315.126C140.096 323.527 103.719 323.969 72.1197 310.235C40.52 296.501 14.7395 266.985 11.1765 232.714C9.83056 219.769 11.8963 205.85 20.0748 195.726C33.133 179.562 56.7163 177.84 77.4928 177.444C98.2694 177.048 121.84 175.387 134.969 159.28C145.057 146.904 145.773 129.645 150.656 114.444C158.959 88.5953 181.054 67.6335 207.304 60.7027C210.586 59.8362 213.918 59.1927 217.278 58.7658C246.691 55.0261 275.641 68.5956 292.404 93.0521L294.423 95.9983Z" fill="#E0E0E0" fill-opacity="0.5"/>
</g>
<path d="M235.835 134.179C235.835 134.179 236.042 134.239 236.44 134.371C236.836 134.51 237.435 134.69 238.228 134.889C239.809 135.271 242.226 135.696 245.324 135.395C246.868 135.247 248.572 134.935 250.389 134.419C252.205 133.901 254.15 133.223 256.119 132.229C260.06 130.271 264.144 127.162 267.65 122.86C268.508 121.782 269.296 120.578 269.699 119.198C270.094 117.839 270.087 116.264 269.372 114.962C268.664 113.649 267.195 112.855 265.662 112.714C264.112 112.533 262.528 112.912 261.061 113.605C260.314 113.932 259.557 114.285 258.736 114.507C257.921 114.734 257.015 114.78 256.174 114.518C255.339 114.281 254.532 113.659 254.267 112.766C253.986 111.881 254.231 110.92 254.7 110.161C255.168 109.377 255.924 108.804 256.72 108.398C257.522 107.984 258.38 107.709 259.221 107.411C260.902 106.815 262.559 106.079 264.166 105.201C265.772 104.323 267.327 103.304 268.802 102.148C269.545 101.572 270.254 100.964 270.828 100.224C271.394 99.4982 271.852 98.6251 271.811 97.7121C271.782 96.7957 271.185 95.979 270.36 95.5408C269.536 95.0813 268.581 94.91 267.61 94.8568C266.64 94.7911 265.633 94.7951 264.64 94.5408C263.649 94.3051 262.683 93.6597 262.272 92.6451C262.077 92.1371 262.122 91.5176 262.423 91.0528C262.715 90.5827 263.152 90.2679 263.564 89.9765C264.392 89.4014 265.201 88.8012 265.988 88.1617C267.563 86.8855 269.051 85.4772 270.431 83.9507C271.79 82.4148 273.168 80.8192 273.989 78.9222C274.39 77.9793 274.636 76.9528 274.533 75.9355C274.457 74.9149 273.993 73.9528 273.291 73.2045C271.867 71.7105 269.64 71.0624 267.646 71.5332C265.63 71.9601 263.871 73.2058 262.51 74.7091C259.757 77.7808 258.472 81.7721 256.231 85.1226C255.674 85.9626 255.056 86.762 254.36 87.4871C254.01 87.841 253.65 88.2109 253.19 88.4698C252.751 88.7328 252.123 88.8642 251.62 88.5708C251.123 88.2852 250.871 87.7627 250.757 87.2667C250.637 86.7547 250.682 86.2454 250.702 85.7647C250.723 85.2833 250.741 84.8072 250.605 84.3743C250.483 83.9387 250.233 83.5423 249.899 83.2315C249.233 82.6061 248.295 82.282 247.39 82.3252C246.484 82.373 245.627 82.8331 244.967 83.452C244.301 84.0781 243.803 84.8716 243.472 85.7182C243.145 86.5688 242.975 87.4738 242.887 88.3782C242.73 90.1916 242.805 92.0182 242.777 93.8091C242.77 95.6012 242.764 97.3694 242.757 99.1124C242.71 100.84 242.903 102.603 242.324 104.27C242.042 105.087 241.438 105.853 240.596 106.155C239.761 106.473 238.857 106.335 238.075 106.066C236.505 105.476 235.181 104.456 234.128 103.256C233.601 102.656 233.153 101.994 232.782 101.305C232.41 100.62 232.088 99.9245 231.661 99.3149C231.242 98.7074 230.681 98.1941 229.997 97.9962C229.318 97.7831 228.576 97.9152 227.94 98.2034C227.305 98.5042 226.746 98.9637 226.343 99.5254C225.932 100.081 225.696 100.744 225.558 101.41C225.298 102.756 225.396 104.128 225.322 105.451C225.27 106.771 225.264 108.058 225.282 109.309C225.327 111.811 225.557 114.164 225.914 116.339C226.274 118.513 226.757 120.516 227.394 122.294C227.67 123.198 228.063 124.015 228.379 124.816C228.764 125.585 229.102 126.334 229.499 127C231.053 129.69 232.708 131.488 233.922 132.577C234.206 132.873 234.497 133.087 234.738 133.283C234.979 133.476 235.181 133.639 235.347 133.773C235.673 134.036 235.835 134.179 235.835 134.179C235.835 134.179 235.659 134.055 235.325 133.8C235.157 133.671 234.95 133.512 234.705 133.323C234.459 133.132 234.163 132.921 233.875 132.629C232.642 131.553 230.962 129.761 229.381 127.067C228.978 126.4 228.634 125.649 228.243 124.878C227.919 124.075 227.521 123.255 227.238 122.348C226.588 120.564 226.094 118.553 225.723 116.37C225.354 114.187 225.115 111.824 225.061 109.313C225.038 108.058 225.04 106.767 225.089 105.442C225.159 104.126 225.053 102.759 225.317 101.361C225.458 100.67 225.703 99.973 226.139 99.378C226.565 98.7811 227.153 98.2937 227.831 97.971C228.507 97.6616 229.314 97.5122 230.07 97.7452C230.83 97.963 231.44 98.5281 231.879 99.1609C232.325 99.797 232.651 100.5 233.02 101.174C233.386 101.847 233.821 102.488 234.336 103.073C235.358 104.238 236.669 105.235 238.169 105.794C238.915 106.05 239.754 106.167 240.493 105.881C241.24 105.61 241.779 104.936 242.046 104.167C242.594 102.602 242.412 100.843 242.453 99.1104C242.457 97.3674 242.461 95.5992 242.465 93.8071C242.492 92.0149 242.414 90.2015 242.57 88.347C242.659 87.4234 242.831 86.4911 243.173 85.6007C243.518 84.7149 244.038 83.8816 244.745 83.2143C245.45 82.5549 246.362 82.0536 247.373 81.9972C248.368 81.9507 249.384 82.2973 250.127 82.9912C250.498 83.3358 250.783 83.7846 250.924 84.2813C251.077 84.78 251.054 85.2946 251.034 85.7793C251.013 86.266 250.975 86.7454 251.082 87.191C251.182 87.6345 251.411 88.0688 251.783 88.2773C252.156 88.4937 252.628 88.4087 253.025 88.177C253.431 87.9493 253.773 87.6033 254.117 87.2527C254.795 86.5456 255.401 85.762 255.949 84.9347C258.16 81.6373 259.44 77.63 262.255 74.478C263.652 72.9356 265.46 71.6447 267.575 71.1945C269.673 70.7019 272.028 71.3765 273.543 72.9668C274.292 73.7616 274.797 74.8107 274.877 75.903C274.986 76.9952 274.723 78.0789 274.308 79.057C273.452 81.0264 272.055 82.6339 270.687 84.1811C269.294 85.7202 267.792 87.1405 266.203 88.4267C265.41 89.0701 264.59 89.6776 263.759 90.254C263.352 90.5395 262.954 90.8377 262.712 91.2301C262.465 91.6179 262.431 92.0986 262.59 92.5269C262.937 93.3901 263.806 94.0016 264.725 94.2134C265.661 94.4545 266.648 94.4551 267.633 94.5215C268.616 94.576 269.638 94.7539 270.523 95.2499C270.962 95.5003 271.368 95.8289 271.659 96.2559C271.956 96.6775 272.114 97.1875 272.141 97.6961C272.183 98.7353 271.675 99.6675 271.086 100.424C270.49 101.194 269.747 101.828 269.003 102.403C267.511 103.569 265.94 104.595 264.318 105.48C262.696 106.364 261.022 107.105 259.324 107.705C258.477 108.003 257.632 108.274 256.861 108.671C256.091 109.064 255.392 109.595 254.959 110.319C254.521 111.024 254.306 111.902 254.553 112.674C254.784 113.455 255.486 114.01 256.26 114.234C257.041 114.476 257.878 114.44 258.66 114.224C259.449 114.013 260.195 113.669 260.945 113.341C262.426 112.643 264.089 112.242 265.692 112.437C266.489 112.531 267.28 112.746 267.964 113.159C268.649 113.564 269.232 114.142 269.606 114.831C270.362 116.22 270.357 117.859 269.945 119.268C269.523 120.696 268.712 121.922 267.842 123.01C264.298 127.334 260.18 130.445 256.205 132.399C254.22 133.391 252.259 134.064 250.433 134.575C248.605 135.084 246.89 135.388 245.336 135.526C242.218 135.809 239.791 135.359 238.21 134.954C237.418 134.744 236.821 134.552 236.428 134.403C236.033 134.261 235.835 134.179 235.835 134.179Z" fill="#263238"/>
<path d="M272.047 72.7337C272.051 72.7383 271.991 72.7948 271.873 72.901C271.74 73.0166 271.564 73.1706 271.341 73.3658C270.873 73.7722 270.181 74.3724 269.312 75.1686C267.573 76.7562 265.127 79.1466 262.464 82.4228C261.128 84.0556 259.739 85.9055 258.282 87.9181C256.83 89.9346 255.291 92.0986 253.759 94.4345C252.226 96.7692 250.691 99.2724 249.309 101.98C248.612 103.33 247.988 104.744 247.352 106.186C246.72 107.628 246.078 109.09 245.428 110.57C242.85 116.499 240.579 122.232 238.943 127.592C237.299 132.947 236.304 137.915 235.85 142.128C235.385 146.343 235.44 149.788 235.59 152.152C235.672 153.335 235.754 154.253 235.832 154.872C235.863 155.169 235.888 155.403 235.907 155.578C235.922 155.738 235.928 155.82 235.922 155.821C235.916 155.822 235.9 155.742 235.874 155.583C235.848 155.409 235.811 155.176 235.766 154.88C235.667 154.263 235.565 153.345 235.463 152.161C235.274 149.794 235.184 146.338 235.621 142.104C236.048 137.872 237.023 132.879 238.657 127.502C240.281 122.121 242.55 116.371 245.13 110.438C245.781 108.957 246.423 107.493 247.056 106.052C247.692 104.614 248.322 103.187 249.025 101.831C250.419 99.1104 251.966 96.6012 253.509 94.2659C255.051 91.9286 256.601 89.7666 258.064 87.756C259.532 85.7474 260.936 83.9015 262.287 82.2734C264.98 79.0058 267.46 76.6327 269.228 75.073C270.111 74.2895 270.815 73.7051 271.299 73.3147C271.531 73.1294 271.714 72.984 271.851 72.8745C271.977 72.7775 272.043 72.729 272.047 72.7337Z" fill="#263238"/>
<path d="M249.117 101.819C249.095 101.822 249.038 101.552 248.951 101.06C248.862 100.569 248.758 99.8541 248.641 98.9683C248.407 97.1988 248.167 94.744 247.912 92.0368C247.657 89.3277 247.382 86.8835 247.121 85.1226C246.993 84.2415 246.883 83.5297 246.8 83.0383C246.72 82.5463 246.686 82.2721 246.708 82.2667C246.73 82.2621 246.805 82.5277 246.924 83.0124C247.046 83.4965 247.191 84.205 247.348 85.0841C247.669 86.8417 247.981 89.2925 248.236 92.0036C248.481 94.6762 248.702 97.0939 248.871 98.9411C248.953 99.7751 249.022 100.478 249.078 101.042C249.124 101.539 249.14 101.816 249.117 101.819Z" fill="#263238"/>
<path d="M271.979 97.7672C271.979 97.7897 271.654 97.8243 271.068 97.8674C270.481 97.9139 269.634 97.977 268.588 98.0885C266.496 98.2944 263.616 98.6808 260.457 99.2452C257.298 99.8163 254.461 100.454 252.423 100.975C251.401 101.228 250.58 101.455 250.012 101.609C249.444 101.765 249.127 101.841 249.119 101.82C249.113 101.798 249.417 101.68 249.975 101.486C250.534 101.295 251.347 101.033 252.364 100.749C254.393 100.169 257.232 99.4929 260.401 98.9199C263.569 98.3541 266.465 98.0029 268.569 97.8561C269.62 97.7745 270.473 97.7466 271.064 97.7399C271.652 97.7353 271.977 97.7439 271.979 97.7672Z" fill="#263238"/>
<path d="M238.941 127.085C238.931 127.09 238.878 126.994 238.787 126.806C238.684 126.581 238.558 126.308 238.405 125.977C238.076 125.255 237.627 124.198 237.09 122.886C236.012 120.261 234.64 116.59 233.179 112.517C231.718 108.443 230.38 104.763 229.361 102.12C228.861 100.836 228.449 99.7784 228.143 98.9929C228.012 98.6516 227.904 98.3707 227.816 98.1397C227.745 97.9438 227.713 97.8382 227.722 97.8336C227.733 97.8296 227.786 97.9259 227.877 98.1138C227.98 98.3382 228.106 98.6111 228.259 98.9424C228.588 99.6642 229.037 100.721 229.574 102.033C230.651 104.657 232.024 108.33 233.485 112.404C234.945 116.477 236.283 120.157 237.303 122.801C237.803 124.085 238.214 125.143 238.52 125.927C238.651 126.268 238.759 126.55 238.847 126.781C238.919 126.975 238.951 127.081 238.941 127.085Z" fill="#263238"/>
<path d="M269.357 117.594C269.359 117.605 269.255 117.647 269.055 117.716C268.817 117.793 268.525 117.888 268.171 118.003C267.355 118.259 266.254 118.605 264.914 119.024C262.164 119.888 258.38 121.125 254.2 122.497C250.018 123.87 246.218 125.072 243.45 125.879C242.066 126.283 240.943 126.598 240.162 126.801C239.801 126.892 239.503 126.967 239.262 127.028C239.055 127.077 238.944 127.097 238.941 127.085C238.939 127.074 239.043 127.033 239.244 126.964C239.481 126.888 239.773 126.793 240.127 126.678C240.943 126.421 242.044 126.076 243.383 125.656C246.133 124.793 249.918 123.556 254.099 122.183C258.279 120.811 262.079 119.608 264.847 118.801C266.232 118.398 267.355 118.082 268.136 117.88C268.497 117.789 268.794 117.713 269.037 117.652C269.244 117.603 269.353 117.584 269.357 117.594Z" fill="#263238"/>
<path d="M219.759 93.6696C221.758 93.7573 223.626 94.8588 224.932 96.3754C226.239 97.892 227.031 99.791 227.532 101.729C228.501 105.478 227.848 109.886 226.749 113.6C222.712 112.118 220.252 107.778 219.142 105.497C217.388 101.894 216.407 94.3157 219.759 93.6696Z" fill="#B61E29"/>
<path d="M232.537 118.184C231.275 116.339 231.267 113.787 232.294 111.801C233.322 109.815 235.274 108.393 237.417 107.755C238.408 107.46 239.556 107.343 240.41 107.924C241.209 108.468 241.548 109.523 241.436 110.483C241.323 111.444 240.829 112.318 240.248 113.091C238.256 115.74 235.843 117.938 232.537 118.184Z" fill="#B61E29"/>
<path d="M232.875 130.687C232.855 130.69 232.796 130.412 232.7 129.908C232.596 129.352 232.462 128.635 232.302 127.773C231.997 125.977 231.512 123.424 231.92 120.609C232.312 117.807 233.45 115.418 234.633 113.996C235.215 113.276 235.772 112.768 236.183 112.457C236.381 112.293 236.556 112.192 236.667 112.115C236.782 112.041 236.843 112.007 236.849 112.015C236.893 112.065 235.897 112.667 234.79 114.119C233.668 115.546 232.584 117.894 232.198 120.65C231.797 123.407 232.242 125.937 232.497 127.741C232.634 128.648 232.745 129.382 232.808 129.892C232.871 130.401 232.893 130.684 232.875 130.687Z" fill="#263238"/>
<path d="M221.015 99.374C221.024 99.3701 221.079 99.4763 221.176 99.6821C221.281 99.9159 221.417 100.216 221.585 100.587C221.937 101.375 222.43 102.522 223.028 103.944C224.224 106.787 225.82 110.738 227.485 115.141C229.149 119.546 230.565 123.566 231.549 126.49C232.041 127.951 232.431 129.138 232.688 129.961C232.808 130.35 232.905 130.665 232.98 130.91C233.043 131.128 233.073 131.244 233.063 131.247C233.054 131.251 233.007 131.14 232.927 130.928C232.838 130.687 232.725 130.378 232.585 129.995C232.284 129.15 231.87 127.982 231.363 126.554C230.332 123.649 228.887 119.642 227.223 115.24C225.559 110.84 223.993 106.88 222.845 104.018C222.281 102.612 221.82 101.462 221.486 100.628C221.338 100.249 221.218 99.9418 221.125 99.7027C221.044 99.4916 221.006 99.378 221.015 99.374Z" fill="#263238"/>
<path d="M228.139 122.376C225.786 118.291 221.351 115.483 216.652 115.102C215.456 115.005 214.014 115.193 213.471 116.264C212.927 117.336 213.631 118.616 214.439 119.507C217.801 123.211 223.53 124.542 228.18 122.698" fill="#B61E29"/>
<path d="M218.447 118.322C218.449 118.303 218.715 118.316 219.196 118.356C219.437 118.374 219.733 118.398 220.07 118.465C220.407 118.53 220.799 118.57 221.216 118.69C221.635 118.797 222.098 118.904 222.577 119.081C223.065 119.23 223.566 119.443 224.093 119.672C225.132 120.155 226.234 120.784 227.281 121.599C228.32 122.423 229.197 123.342 229.908 124.243C230.249 124.704 230.576 125.141 230.83 125.585C231.11 126.012 231.318 126.439 231.513 126.826C231.722 127.206 231.844 127.581 231.98 127.895C232.118 128.211 232.203 128.494 232.27 128.727C232.41 129.19 232.478 129.447 232.459 129.453C232.399 129.473 232.12 128.437 231.336 126.915C231.132 126.539 230.917 126.123 230.632 125.708C230.374 125.276 230.046 124.851 229.705 124.402C228.994 123.525 228.129 122.629 227.109 121.819C226.08 121.018 225.002 120.394 223.985 119.905C223.47 119.674 222.98 119.455 222.502 119.299C222.033 119.115 221.579 118.999 221.168 118.88C219.51 118.449 218.441 118.383 218.447 118.322Z" fill="#263238"/>
<path d="M287.828 294.453H51.9836C47.9166 294.453 44.6191 291.157 44.6191 287.089V134.771C44.6191 130.704 47.9159 127.407 51.9836 127.407H287.828C291.895 127.407 295.192 130.704 295.192 134.771V287.088C295.191 291.156 291.895 294.453 287.828 294.453Z" fill="#F5F5F5" fill-opacity="0.5"/>
<path d="M283.067 289.92H56.0656C51.9986 289.92 48.7012 286.623 48.7012 282.556V138.853C48.7012 134.786 51.9986 131.488 56.0656 131.488H283.067C287.134 131.488 290.431 134.785 290.431 138.853V282.556C290.431 286.623 287.134 289.92 283.067 289.92Z" fill="#B61E29"/>
<path d="M284.731 180.257H52.3398V267.779H284.731V180.257Z" fill="white"/>
<path d="M209.455 150.24V166.623H205.664V159.906H198.221V166.623H194.43V150.24H198.221V156.699H205.664V150.24H209.455Z" fill="white"/>
<path d="M226.029 163.58V166.623H213.344V150.24H225.725V153.282H217.112V156.84H224.718V159.789H217.112V163.58H226.029Z" fill="white"/>
<path d="M229.051 150.24H232.842V163.533H241.057V166.623H229.051V150.24Z" fill="white"/>
<path d="M243.191 150.24H246.983V163.533H255.198V166.623H243.191V150.24Z" fill="white"/>
<path d="M256.02 158.431C256.02 153.562 259.811 149.958 264.984 149.958C270.132 149.958 273.947 153.539 273.947 158.431C273.947 163.322 270.132 166.903 264.984 166.903C259.811 166.903 256.02 163.299 256.02 158.431ZM270.108 158.431C270.108 155.318 267.908 153.188 264.983 153.188C262.057 153.188 259.857 155.318 259.857 158.431C259.857 161.544 262.057 163.673 264.983 163.673C267.908 163.674 270.108 161.544 270.108 158.431Z" fill="white"/>
<path d="M69.5878 212.371L58.2971 233.142L59.2234 182.708C59.6079 178.062 61.4551 174.998 62.3508 173.782C63.1908 172.641 63.9896 171.466 65.0666 170.541C66.3734 169.418 68.1681 167.996 69.3853 167.515C70.8912 166.92 70.9377 164.827 69.534 164.464C68.131 164.102 63.9425 165.64 60.2871 169.382C56.6318 173.125 57.4605 165.031 57.7095 162.078C57.9592 159.124 58.3004 149.96 57.4525 149.189C56.2088 148.057 54.7288 149.208 54.5488 152.162C54.3662 155.152 53.2036 163.951 51.6492 163.785C50.118 163.622 51.5914 148.598 51.5914 148.598C51.5914 148.598 52.426 145.424 50.6372 145.172C47.4115 144.718 47.0217 160.774 47.0224 162.301C47.0237 163.363 45.3259 163.244 45.3863 162.102C45.4487 160.926 47.2043 147.14 43.9255 146.646C41.4083 146.267 43.4813 159.854 41.5291 162.552C39.5756 165.25 41.0112 152.063 38.5903 151.799C37.6892 151.701 37 151.753 37.2689 159.417C37.4137 163.536 39.233 169.698 38.9256 177.653L38.8492 179.715C36.9462 194.623 28.3813 272.653 57.918 270.567C57.918 270.567 80.3413 267.452 92.8026 226.646L69.5878 212.371Z" fill="#FFBE9D"/>
<path d="M44.3088 174.263C44.2975 174.335 44.8048 174.399 45.5432 174.782C46.2663 175.154 47.243 175.929 47.7284 177.188L47.9561 177.778L48.2177 177.196C48.559 176.437 49.077 175.667 49.7496 174.984C51.1858 173.512 52.9859 172.777 54.3053 172.539C55.6366 172.267 56.4985 172.417 56.5085 172.31C56.5251 172.265 55.6638 171.962 54.2429 172.141C52.8405 172.287 50.883 173.006 49.3426 174.586C48.6215 175.318 48.075 176.158 47.7317 176.985L48.2204 176.994C47.6248 175.58 46.4907 174.802 45.6773 174.488C44.8433 174.165 44.3088 174.218 44.3088 174.263Z" fill="#EB996E"/>
<path d="M204.394 222.071L216.953 245.725L228.419 267.779H202.49L186.422 234.664" fill="#FFBE9D"/>
<path d="M106.047 267.779C108.515 259.368 106.897 258.037 104.236 249.685L98.5279 231.764L86.0314 250.224L59.4688 228.893L68.2847 209.018C84.7413 171.716 111.425 174.36 111.425 174.36L145.445 167.87C145.445 167.87 167.209 165.846 181.31 178.664C185.902 182.838 206.774 220.403 206.774 220.403L181.126 238.375L174.841 227.648L173.103 242.201C171.731 250.149 171.819 260.302 174.844 267.78" fill="#455A64"/>
<path d="M103.087 187.022C103.106 187.116 97.4929 188.349 90.5508 189.778C83.606 191.207 77.9627 192.288 77.9434 192.195C77.9242 192.102 83.5363 190.868 90.4811 189.439C97.4232 188.011 103.068 186.928 103.087 187.022Z" fill="#FAFAFA" fill-opacity="0.5"/>
<path d="M177.906 176.291C177.923 176.385 172.41 177.481 165.593 178.739C158.774 179.997 153.234 180.94 153.217 180.846C153.2 180.753 158.711 179.657 165.531 178.399C172.347 177.141 177.888 176.198 177.906 176.291Z" fill="#FAFAFA" fill-opacity="0.5"/>
<path d="M188.36 188.43C188.38 188.523 179.816 190.447 169.233 192.727C158.647 195.007 150.051 196.779 150.031 196.685C150.011 196.592 158.574 194.669 169.16 192.389C179.743 190.109 188.34 188.337 188.36 188.43Z" fill="#FAFAFA" fill-opacity="0.5"/>
<path d="M198.873 207.149C198.873 207.149 198.753 207.18 198.517 207.224C198.266 207.269 197.916 207.331 197.464 207.411C196.523 207.57 195.159 207.799 193.41 208.095C189.873 208.674 184.778 209.51 178.488 210.541C165.87 212.564 148.462 215.354 129.233 218.437C109.986 221.485 92.5575 224.201 79.9322 226.104C73.6196 227.055 68.5081 227.804 64.971 228.29C63.2021 228.533 61.8276 228.711 60.8927 228.814C59.9624 228.917 59.4538 228.951 59.4691 228.894C59.4558 228.927 59.9565 228.87 60.8841 228.745C61.8283 228.608 63.1961 228.411 64.9517 228.158C68.4935 227.614 73.5957 226.83 79.8951 225.863C92.5177 223.873 109.936 221.128 129.178 218.095C148.413 215.052 165.827 212.297 178.449 210.299C184.746 209.314 189.847 208.516 193.388 207.962C195.142 207.694 196.509 207.487 197.452 207.343C197.907 207.277 198.259 207.226 198.511 207.19C198.749 207.157 198.873 207.149 198.873 207.149Z" fill="#FAFAFA" fill-opacity="0.5"/>
<path d="M173.817 236.222C173.83 236.317 158.005 238.457 138.476 241.001C118.941 243.546 103.1 245.533 103.088 245.438C103.075 245.344 118.897 243.204 138.432 240.659C157.96 238.114 173.805 236.128 173.817 236.222Z" fill="#FAFAFA" fill-opacity="0.5"/>
<path d="M170.797 261.083C170.796 261.178 156.643 261.17 139.189 261.063C121.729 260.957 107.579 260.794 107.58 260.698C107.581 260.603 121.731 260.611 139.191 260.717C156.646 260.824 170.798 260.988 170.797 261.083Z" fill="#FAFAFA" fill-opacity="0.5"/>
<path d="M112.815 202.398C112.817 202.41 112.66 202.444 112.359 202.498C112.024 202.554 111.586 202.627 111.041 202.717C109.856 202.905 108.209 203.167 106.19 203.487C102.094 204.141 96.4438 205.084 90.2248 206.245C84.0037 207.409 78.3929 208.57 74.3386 209.439C72.3406 209.869 70.7098 210.22 69.5372 210.473C68.9967 210.585 68.5624 210.675 68.2291 210.744C67.929 210.803 67.7703 210.828 67.7676 210.816C67.765 210.804 67.9183 210.757 68.2132 210.676C68.5425 210.591 68.9721 210.48 69.5066 210.342C70.6314 210.056 72.2636 209.666 74.2854 209.2C78.3285 208.269 83.936 207.07 90.161 205.905C96.3847 204.743 102.046 203.837 106.153 203.246C108.206 202.949 109.87 202.724 111.022 202.584C111.57 202.521 112.011 202.469 112.349 202.43C112.653 202.398 112.814 202.387 112.815 202.398Z" fill="#FAFAFA" fill-opacity="0.5"/>
<path d="M142.029 95.25C141.211 105.087 154.395 112.075 153.222 121.876C152.896 124.598 151.485 127.556 152.921 129.892C154.651 132.706 158.852 132.113 161.924 133.328C165.7 134.822 167.635 139.367 167.058 143.387C166.483 147.407 163.884 150.881 160.829 153.556C156.037 157.752 149.905 160.407 143.561 160.97C140.602 161.233 137.508 161.025 134.866 159.667C132.224 158.31 130.127 155.622 130.113 152.652" fill="#263238"/>
<path d="M143.329 173.486C141.576 165.09 139.886 156.219 139.886 156.219C139.886 156.219 150.315 152.134 149.567 137.557C148.853 123.655 140.056 93.0654 140.056 93.0654C123.155 90.017 105.619 98.145 97.1641 112.948L112.517 180.905C114.299 188.795 122.502 193.545 130.935 191.572C139.452 189.58 144.998 181.486 143.329 173.486Z" fill="#FFBE9D"/>
<path d="M141.196 118.172C141.432 119.12 140.824 120.102 139.839 120.366C138.855 120.631 137.865 120.079 137.629 119.131C137.393 118.183 138 117.2 138.984 116.936C139.969 116.671 140.96 117.224 141.196 118.172Z" fill="#263238"/>
<path d="M143.216 116.353C143.041 116.636 141.456 115.912 139.512 116.33C137.563 116.719 136.346 118.023 136.085 117.829C135.958 117.746 136.097 117.272 136.623 116.687C137.14 116.107 138.091 115.447 139.304 115.195C140.518 114.945 141.632 115.175 142.315 115.508C143.011 115.84 143.304 116.224 143.216 116.353Z" fill="#263238"/>
<path d="M121.344 122.738C121.581 123.686 120.972 124.667 119.987 124.932C119.003 125.196 118.014 124.645 117.777 123.696C117.542 122.749 118.149 121.766 119.133 121.501C120.118 121.236 121.108 121.789 121.344 122.738Z" fill="#263238"/>
<path d="M123.334 120.889C123.159 121.173 121.573 120.449 119.629 120.866C117.68 121.256 116.463 122.56 116.202 122.366C116.076 122.282 116.212 121.809 116.74 121.224C117.257 120.643 118.208 119.983 119.421 119.732C120.635 119.481 121.749 119.712 122.432 120.044C123.127 120.377 123.421 120.76 123.334 120.889Z" fill="#263238"/>
<path d="M133.662 133.472C133.629 133.364 134.795 132.898 136.702 132.232C137.188 132.075 137.638 131.877 137.65 131.52C137.691 131.137 137.369 130.645 137.006 130.117C136.284 129.014 135.528 127.856 134.734 126.645C131.552 121.688 129.135 117.571 129.336 117.445C129.536 117.319 132.279 121.232 135.462 126.188C136.234 127.413 136.973 128.579 137.676 129.697C137.984 130.222 138.443 130.794 138.348 131.593C138.293 131.992 137.984 132.339 137.684 132.492C137.386 132.657 137.108 132.722 136.865 132.789C134.915 133.314 133.693 133.581 133.662 133.472Z" fill="#263238"/>
<path d="M139.886 156.219C139.886 156.219 130.528 158.841 119.932 155.182C119.932 155.182 126.566 163.899 140.401 159.589L139.886 156.219Z" fill="#EB996E"/>
<path d="M133.833 138.338C132.936 137.56 131.603 137.312 130.413 137.702C129.588 137.971 128.821 138.559 128.453 139.356C128.086 140.152 128.185 141.152 128.79 141.709C129.472 142.336 130.606 142.274 131.479 141.813C132.352 141.352 133.022 140.571 133.651 139.801C133.826 139.588 134.003 139.367 134.086 139.108C134.167 138.849 134.131 138.541 133.929 138.384" fill="#B61E29"/>
<path d="M128.22 136.032C128.533 135.947 128.984 138.059 131.11 139.175C133.234 140.297 135.436 139.583 135.515 139.874C135.573 140 135.1 140.391 134.156 140.618C133.23 140.848 131.805 140.836 130.504 140.154C129.206 139.468 128.472 138.342 128.216 137.49C127.948 136.625 128.073 136.051 128.22 136.032Z" fill="#263238"/>
<path d="M105.64 127.406C104.07 127.433 102.484 127.813 101.162 128.658C99.8391 129.503 98.8006 130.84 98.4779 132.377C98.1539 133.917 98.5655 135.555 99.3942 136.893C100.223 138.231 101.441 139.293 102.767 140.142C103.719 140.751 104.765 141.271 105.889 141.379C107.015 141.486 108.235 141.119 108.927 140.226" fill="#FFBE9D"/>
<path d="M106.744 136.725C106.928 136.744 106.465 137.796 105.008 137.716C104.307 137.682 103.536 137.235 102.989 136.589C102.437 135.932 102.009 135.174 101.708 134.245C101.413 133.324 101.415 132.279 101.783 131.455C102.124 130.625 102.841 130.024 103.517 129.865C104.928 129.533 105.576 130.422 105.421 130.485C105.332 130.624 104.675 130.234 103.793 130.654C102.938 131.006 102.323 132.416 102.838 133.899C103.335 135.415 104.232 136.709 105.133 136.889C106.086 137.146 106.622 136.62 106.744 136.725Z" fill="#EB996E"/>
<path d="M135.94 89.9539C138.076 93.9273 137.14 99.3064 133.787 102.324C130.412 105.362 125.529 105.793 121.17 107.063C116.811 108.332 112.15 111.538 112.348 116.074C112.468 118.823 114.416 121.459 113.715 124.12C112.895 127.23 108.919 128.562 107.798 131.577C105.996 136.421 112.587 140.783 112.296 145.943C112.123 149.005 109.532 151.499 109.244 154.553C108.834 158.895 113.094 163.507 110.725 167.169C108.909 169.979 104.674 169.578 101.561 168.353C98.4475 167.128 95.0578 165.392 91.9429 166.613C90.0698 167.347 88.7471 169.02 87.0785 170.145C84.0553 172.182 79.8057 172.205 76.7606 170.2C73.7155 168.195 72.0575 164.282 72.7341 160.7C73.2347 158.049 74.8436 155.769 76.1397 153.403C77.4365 151.037 78.4644 148.263 77.6829 145.681C77.0839 143.701 75.5282 142.189 74.2938 140.529C73.0594 138.869 72.0933 136.683 72.8881 134.774C74.2825 131.425 79.6297 131.712 81.5693 128.647C84.2352 124.433 78.0627 119.069 79.6443 114.34C81.4345 108.987 90.933 109.941 92.7371 104.593C93.3951 102.642 92.7138 100.501 92.9197 98.4525C93.3905 93.7779 98.2948 90.7859 102.924 89.9812C107.552 89.1757 112.383 89.7786 116.925 88.5795C119.414 87.9228 121.733 86.7442 124.178 85.9394C126.624 85.1346 129.332 84.719 131.746 85.6134C134.159 86.5078 136.1 89.0383 135.615 91.5661" fill="#263238"/>
<path d="M133.844 99.9299C136.49 104.579 141.404 107.864 146.711 108.532C146.624 104.978 146.434 101.39 145.472 97.9671C144.509 94.5448 142.707 91.2634 139.891 89.0914C137.076 86.9201 133.159 86.0178 129.848 87.3119" fill="#263238"/>
<path d="M150.94 168.182C152.143 168.343 158.859 207.755 133.064 212.133C108.647 216.278 101.1 175.782 101.1 175.782C101.1 175.782 117.543 163.72 150.94 168.182Z" fill="#FFBE9D"/>
<path d="M136.16 114.217C136.311 114.505 137.638 114.076 139.289 113.896C140.939 113.691 142.328 113.802 142.409 113.486C142.502 113.197 141.049 112.539 139.157 112.765C137.265 112.981 136.002 113.958 136.16 114.217Z" fill="#263238"/>
<path d="M116.446 117.269C116.502 117.22 116.495 117.104 116.429 116.929L116.412 117.223C116.933 117.027 118.004 116.39 119.411 116.124C121.247 115.722 122.795 116.164 122.923 115.861C122.981 115.725 122.646 115.411 121.968 115.165C121.296 114.917 120.273 114.784 119.186 115.008C117.501 115.329 116.376 116.39 116.13 116.91L116.016 117.152L116.113 117.205C116.275 117.295 116.389 117.318 116.446 117.269Z" fill="#263238"/>
<path d="M105.3 116.124C105.29 116.219 103.275 116.092 100.801 115.839C98.3247 115.586 96.3267 115.304 96.336 115.209C96.3459 115.114 98.3598 115.242 100.836 115.495C103.311 115.748 105.31 116.029 105.3 116.124Z" fill="#B61E29"/>
<path d="M103.11 118.637C103.119 118.727 101.594 118.924 99.7065 118.819C97.8187 118.72 96.3234 118.36 96.342 118.271C96.3599 118.172 97.8625 118.376 99.725 118.473C101.586 118.577 103.103 118.536 103.11 118.637Z" fill="#B61E29"/>
<path d="M136.153 97.9976C136.165 98.0016 136.119 98.1417 136.019 98.4093C135.911 98.6709 135.708 99.0474 135.348 99.4558C134.639 100.29 133.159 101.073 131.228 101.28C130.268 101.403 129.194 101.373 128.074 101.221C126.954 101.084 125.768 100.875 124.516 100.783C123.272 100.694 121.93 100.718 120.672 101.201C119.417 101.689 118.345 102.646 117.458 103.784C116.553 104.913 115.788 106.127 114.888 107.193C114.434 107.721 113.956 108.219 113.422 108.638C112.884 109.051 112.307 109.393 111.709 109.634C110.513 110.129 109.308 110.335 108.205 110.544C107.1 110.75 106.069 110.939 105.184 111.267C103.407 111.923 102.213 113.02 101.738 113.958C101.251 114.905 101.34 115.54 101.289 115.529C101.277 115.529 101.275 115.381 101.28 115.095C101.32 114.816 101.371 114.386 101.618 113.896C102.073 112.904 103.284 111.739 105.097 111.037C106.007 110.683 107.047 110.48 108.151 110.261C109.253 110.041 110.439 109.824 111.585 109.339C112.744 108.875 113.759 108.021 114.628 106.973C115.505 105.928 116.265 104.718 117.187 103.566C118.088 102.409 119.218 101.395 120.55 100.884C121.884 100.378 123.275 100.366 124.54 100.464C127.08 100.691 129.305 101.297 131.202 101.035C133.092 100.863 134.534 100.14 135.25 99.3628C135.981 98.5926 136.104 97.9698 136.153 97.9976Z" fill="#455A64"/>
<path d="M80.742 170.775C80.7387 170.753 80.9625 170.766 81.335 170.614C81.7002 170.464 82.2015 170.079 82.5176 169.382C82.8655 168.698 82.9054 167.72 82.568 166.684C82.2507 165.645 81.6298 164.539 81.159 163.226C80.2122 160.635 79.4565 157.245 80.2135 153.582C80.6019 151.772 81.3835 149.932 82.6437 148.343C83.2719 147.551 84.0162 146.824 84.8695 146.215C85.7154 145.59 86.7074 145.167 87.6775 144.763C88.643 144.351 89.6078 143.932 90.3289 143.249C91.0573 142.576 91.4099 141.601 91.3554 140.641C91.2406 138.704 90.1861 136.935 90.2167 135.018C90.2293 134.071 90.5055 133.167 90.9198 132.385C91.3362 131.599 91.8787 130.929 92.4377 130.326C93.5659 129.125 94.7843 128.197 95.8467 127.317C97.9748 125.566 99.2969 123.661 99.6448 122.159C100.004 120.65 99.6003 119.795 99.6687 119.795C99.6747 119.793 99.6919 119.845 99.7205 119.945C99.7471 120.047 99.7949 120.197 99.8347 120.398C99.8951 120.802 99.9496 121.421 99.7756 122.19C99.605 122.955 99.2139 123.852 98.5724 124.759C97.9317 125.669 97.0632 126.597 96.0048 127.503C94.9443 128.401 93.7458 129.333 92.6476 130.521C92.1038 131.115 91.5819 131.771 91.1881 132.526C90.7963 133.278 90.5434 134.131 90.5347 135.02C90.5241 135.911 90.7724 136.814 91.046 137.728C91.3163 138.643 91.6383 139.592 91.6934 140.626C91.7598 141.657 91.3641 142.766 90.5659 143.497C89.7804 144.241 88.7804 144.666 87.8123 145.081C86.8343 145.488 85.8867 145.893 85.0687 146.495C84.244 147.081 83.5216 147.784 82.91 148.553C81.6823 150.091 80.9127 151.884 80.5256 153.647C79.768 157.22 80.4804 160.566 81.3895 163.141C81.839 164.443 82.4432 165.55 82.7546 166.627C82.9093 167.163 82.9884 167.686 82.9691 168.168C82.9499 168.655 82.8164 169.084 82.6404 169.438C82.2912 170.157 81.7507 170.542 81.3622 170.677C80.9652 170.815 80.742 170.775 80.742 170.775Z" fill="#455A64"/>
</g>
</g>
<defs>
<filter id="filter0_d_487_79" x="0.5" y="0" width="319" height="390" filterUnits="userSpaceOnUse" color-interpolation-filters="sRGB">
<feFlood flood-opacity="0" result="BackgroundImageFix"/>
<feColorMatrix in="SourceAlpha" type="matrix" values="0 0 0 0 0 0 0 0 0 0 0 0 0 0 0 0 0 0 127 0" result="hardAlpha"/>
<feOffset/>
<feGaussianBlur stdDeviation="10"/>
<feComposite in2="hardAlpha" operator="out"/>
<feColorMatrix type="matrix" values="0 0 0 0 0 0 0 0 0 0 0 0 0 0 0 0 0 0 0.25 0"/>
<feBlend mode="normal" in2="BackgroundImageFix" result="effect1_dropShadow_487_79"/>
<feBlend mode="normal" in="SourceGraphic" in2="effect1_dropShadow_487_79" result="shape"/>
</filter>
<clipPath id="clip0_487_79">
<rect x="20.5" y="20" width="279" height="350" rx="25" fill="white"/>
</clipPath>
</defs>
</svg>
