<svg width="140" height="50" viewBox="0 0 140 50" fill="none" xmlns="http://www.w3.org/2000/svg">
<g id="Logo">
<g id="Group">
<path id="Vector" d="M78.0893 19.767C77.7075 19.0297 77.1744 18.4702 76.4964 18.095C75.8184 17.7198 75.0285 17.5289 74.1333 17.5289C73.1525 17.5289 72.2836 17.7462 71.5201 18.1872C70.7565 18.6282 70.1575 19.2536 69.7231 20.0566C69.2886 20.8662 69.0714 21.8009 69.0714 22.8673C69.0714 23.9336 69.2886 24.8683 69.7231 25.6846C70.1575 26.5008 70.7565 27.1261 71.5201 27.5671C72.2836 28.0081 73.1591 28.2254 74.1333 28.2254C75.4498 28.2254 76.5227 27.8567 77.3455 27.1195C78.1683 26.3823 78.6686 25.3818 78.8529 24.1179H73.3039V22.1827H81.4529V24.0784C81.2949 25.2304 80.8868 26.2836 80.2286 27.2512C79.5704 28.2188 78.7081 28.9824 77.6549 29.5616C76.5951 30.1343 75.4234 30.4239 74.1333 30.4239C72.7444 30.4239 71.474 30.1013 70.3286 29.4563C69.1833 28.8112 68.2684 27.916 67.597 26.7641C66.9255 25.6122 66.5898 24.3154 66.5898 22.8739C66.5898 21.4323 66.9255 20.129 67.597 18.9837C68.2684 17.8317 69.1833 16.9365 70.3418 16.2914C71.5003 15.6464 72.7641 15.3239 74.1399 15.3239C75.7131 15.3239 77.1151 15.7122 78.3394 16.4823C79.5638 17.2525 80.459 18.3518 81.0119 19.767H78.0959H78.0893Z" fill="#FDFDFD"/>
<path id="Vector_2" d="M83.1136 16.5744C82.8174 16.2782 82.666 15.9096 82.666 15.4686C82.666 15.0276 82.8174 14.659 83.1136 14.3628C83.4098 14.0666 83.7785 13.9152 84.2195 13.9152C84.6605 13.9152 85.0094 14.0666 85.3056 14.3628C85.6018 14.659 85.7532 15.0276 85.7532 15.4686C85.7532 15.9096 85.6018 16.2782 85.3056 16.5744C85.0094 16.8706 84.6473 17.022 84.2195 17.022C83.7916 17.022 83.4098 16.8706 83.1136 16.5744ZM85.4109 18.5755V30.2988H82.9886V18.5755H85.4109Z" fill="#FDFDFD"/>
<path id="Vector_3" d="M94.8871 18.9244C95.5914 19.2864 96.1377 19.734 96.5327 20.2738V18.569H98.9813V30.4831C98.9813 31.5626 98.7575 32.5237 98.3034 33.3662C97.8492 34.2088 97.1909 34.8736 96.3352 35.3541C95.4795 35.8346 94.4526 36.0782 93.2612 36.0782C91.6749 36.0782 90.3518 35.703 89.3052 34.9591C88.2586 34.2153 87.6596 33.2016 87.5214 31.9247H89.9239C90.1083 32.5368 90.5032 33.0239 91.1022 33.4057C91.7078 33.7809 92.4253 33.9718 93.2612 33.9718C94.242 33.9718 95.0319 33.6756 95.6309 33.0766C96.2365 32.4842 96.5327 31.6153 96.5327 30.4831V28.5282C96.118 29.0811 95.5651 29.5484 94.8608 29.9236C94.1564 30.2988 93.36 30.4897 92.4648 30.4897C91.4445 30.4897 90.5098 30.233 89.6672 29.713C88.8247 29.193 88.1599 28.4755 87.6662 27.5408C87.1791 26.6127 86.9355 25.5595 86.9355 24.3812C86.9355 23.203 87.1791 22.1629 87.6662 21.2546C88.1533 20.3462 88.8247 19.6419 89.6672 19.135C90.5098 18.6348 91.4445 18.3781 92.4648 18.3781C93.3731 18.3781 94.1762 18.5558 94.8805 18.9178L94.8871 18.9244ZM96.0324 22.3209C95.6967 21.7285 95.2623 21.2743 94.7225 20.9584C94.1828 20.649 93.6035 20.491 92.9782 20.491C92.3529 20.491 91.7736 20.6424 91.2339 20.9452C90.6941 21.248 90.2596 21.6956 89.9239 22.288C89.5882 22.8738 89.4237 23.5782 89.4237 24.3812C89.4237 25.1843 89.5882 25.9018 89.9239 26.5074C90.2596 27.1195 90.6941 27.5803 91.2404 27.9028C91.7868 28.2188 92.366 28.3833 92.9716 28.3833C93.5772 28.3833 94.1762 28.2254 94.7159 27.916C95.2557 27.6066 95.6902 27.1458 96.0259 26.5468C96.3616 25.9413 96.5261 25.2369 96.5261 24.4273C96.5261 23.6177 96.3616 22.9199 96.0259 22.3209H96.0324Z" fill="#FDFDFD"/>
<path id="Vector_4" d="M103.747 14.5536V30.2922H101.324V14.5536H103.747Z" fill="#FDFDFD"/>
<path id="Vector_5" d="M116.743 25.3421H107.784C107.856 26.2768 108.205 27.0272 108.824 27.5999C109.449 28.166 110.213 28.4491 111.121 28.4491C112.425 28.4491 113.346 27.9027 113.886 26.81H116.499C116.144 27.8895 115.505 28.7716 114.577 29.4561C113.649 30.1473 112.497 30.4896 111.121 30.4896C110.002 30.4896 108.995 30.2394 108.113 29.7326C107.224 29.2323 106.533 28.5214 106.027 27.6065C105.526 26.6915 105.27 25.6317 105.27 24.4272C105.27 23.2226 105.513 22.1628 106 21.2479C106.487 20.3329 107.178 19.6286 108.06 19.1283C108.949 18.6347 109.963 18.3845 111.115 18.3845C112.267 18.3845 113.208 18.6281 114.07 19.1086C114.933 19.5891 115.61 20.2671 116.091 21.1426C116.572 22.0114 116.815 23.0185 116.815 24.1507C116.815 24.5917 116.789 24.9867 116.729 25.3421H116.743ZM114.294 23.3806C114.281 22.4854 113.958 21.7745 113.34 21.2347C112.714 20.695 111.944 20.4251 111.023 20.4251C110.187 20.4251 109.469 20.6884 108.877 21.2215C108.284 21.7547 107.929 22.4722 107.81 23.3806H114.301H114.294Z" fill="#FDFDFD"/>
<path id="Vector_6" d="M118.281 21.2544C118.768 20.3461 119.439 19.6418 120.282 19.1349C121.124 18.6347 122.059 18.3779 123.079 18.3779C124.001 18.3779 124.804 18.5557 125.495 18.9177C126.18 19.2797 126.733 19.7273 127.141 20.2671V18.5623H129.589V30.2855H127.141V28.5412C126.726 29.0941 126.166 29.5549 125.462 29.9235C124.751 30.2921 123.942 30.4764 123.04 30.4764C122.033 30.4764 121.111 30.2197 120.275 29.6997C119.439 29.1797 118.774 28.4622 118.287 27.5275C117.8 26.5994 117.557 25.5462 117.557 24.3679C117.557 23.1897 117.8 22.1497 118.287 21.2413L118.281 21.2544ZM126.64 22.3208C126.305 21.7284 125.87 21.2742 125.33 20.9583C124.791 20.6489 124.211 20.4909 123.586 20.4909C122.961 20.4909 122.382 20.6423 121.842 20.9451C121.302 21.2479 120.868 21.6955 120.532 22.2879C120.196 22.8737 120.032 23.578 120.032 24.3811C120.032 25.1841 120.196 25.9016 120.532 26.5072C120.868 27.1194 121.302 27.5802 121.848 27.9027C122.395 28.2187 122.974 28.3832 123.58 28.3832C124.185 28.3832 124.784 28.2252 125.324 27.9159C125.864 27.6065 126.298 27.1457 126.634 26.5467C126.969 25.9411 127.134 25.2368 127.134 24.4272C127.134 23.6175 126.969 22.9198 126.634 22.3208H126.64Z" fill="#FDFDFD"/>
<path id="Vector_7" d="M134.08 28.3174H139.398V30.2987H131.275V28.3174L136.614 20.5502H131.275V18.5688H139.398V20.5502L134.08 28.3174Z" fill="#FDFDFD"/>
</g>
<g id="Group_2">
<path id="Vector_8" d="M52.0622 18.7138H49.4226C46.2631 9.30752 37.3637 2.51449 26.9108 2.51449C14.6675 2.51449 4.56353 11.8286 3.30629 23.7362C3.22072 24.559 3.17463 25.4015 3.17463 26.2507H0.660156C0.660156 25.3291 0.706234 24.3944 0.80497 23.4729C1.48296 17.0682 4.4977 11.144 9.30286 6.79305C14.1409 2.40917 20.3942 0 26.9108 0C38.1996 0 48.2049 7.19459 51.8055 17.9108C51.8976 18.174 51.9766 18.4439 52.0622 18.7138Z" fill="#FDFDFD"/>
<path id="Vector_9" d="M35.1505 18.7138H31.1682C29.9109 18.0029 28.4562 17.5948 26.9094 17.5948C23.006 17.5948 19.7016 20.1883 18.6221 23.7428C18.3786 24.5393 18.2469 25.3818 18.2469 26.2573H15.7324C15.7324 25.395 15.8312 24.5524 16.0155 23.7428C17.1608 18.7862 21.6039 15.0869 26.9028 15.0869C30.1611 15.0869 33.0968 16.489 35.144 18.7204L35.1505 18.7138Z" fill="#FDFDFD"/>
<path id="Vector_10" d="M41.2533 18.7138H38.3241C35.8755 15.0145 31.6693 12.5659 26.9102 12.5659C20.2225 12.5659 14.6406 17.3908 13.4558 23.7362C13.3044 24.5524 13.2254 25.3884 13.2254 26.2507H10.7109C10.7109 25.395 10.7768 24.559 10.9084 23.7362C12.113 15.9821 18.8205 10.0514 26.9102 10.0514C33.1372 10.0514 38.5414 13.5598 41.2533 18.7072V18.7138Z" fill="#FDFDFD"/>
<path id="Vector_11" d="M46.75 18.7139H44.0315C41.1286 12.138 34.5462 7.54354 26.9041 7.54354C17.4385 7.54354 9.59232 14.6065 8.36141 23.7428C8.2495 24.5656 8.19027 25.4016 8.19027 26.2573H5.67578C5.67578 25.4082 5.72845 24.5656 5.82718 23.7428C7.07126 13.2176 16.0497 5.02905 26.9041 5.02905C35.9549 5.02905 43.6958 10.7228 46.7434 18.7139H46.75Z" fill="#FDFDFD"/>
<path id="Vector_12" d="M50.6462 26.2572C50.6462 27.1064 50.6001 27.9423 50.5145 28.7717C50.5014 28.8836 50.4882 29.0021 50.475 29.114C50.3895 29.8446 50.2644 30.5753 50.113 31.2862C47.8026 41.9695 38.2778 50 26.91 50C14.6667 50 4.56272 40.6859 3.30548 28.7783C3.21991 27.9555 3.17383 27.113 3.17383 26.2638H5.68831C5.68831 27.113 5.74097 27.9555 5.83971 28.7783C7.08378 39.3036 16.0622 47.4921 26.9166 47.4921C36.8889 47.4921 45.2749 40.5805 47.5393 31.2928C47.7433 30.47 47.8947 29.634 47.9935 28.7783C48.0922 27.9555 48.1448 27.113 48.1448 26.2638V23.7493H35.2038C34.9274 22.841 34.5061 21.9918 33.9664 21.2349H50.1196C50.2973 22.0577 50.4355 22.8936 50.5211 23.7493C50.6067 24.5721 50.6528 25.4147 50.6528 26.2638L50.6462 26.2572Z" fill="#FDFDFD"/>
<path id="Vector_13" d="M45.6248 26.2573C45.6248 27.1065 45.5656 27.949 45.4537 28.7718C45.3352 29.6275 45.1641 30.4701 44.9337 31.2863C42.7352 39.172 35.4879 44.9711 26.9111 44.9711C17.4456 44.9711 9.59932 37.9082 8.3684 28.7718C8.2565 27.949 8.19727 27.113 8.19727 26.2573H10.7118C10.7118 27.113 10.7776 27.949 10.9092 28.7718C12.1138 36.5259 18.8213 42.4566 26.9111 42.4566C34.1056 42.4566 40.2009 37.77 42.3139 31.2863C42.5772 30.4767 42.7812 29.6341 42.9129 28.7718H26.9111V26.2573H45.6248Z" fill="#FDFDFD"/>
<path id="Vector_14" d="M39.6418 31.2797C37.6341 36.3482 32.6842 39.9355 26.9114 39.9355C20.2237 39.9355 14.6418 35.1107 13.457 28.7652C13.3056 27.949 13.2266 27.113 13.2266 26.2507H15.741C15.741 27.113 15.8398 27.9556 16.0241 28.7652C17.1694 33.7218 21.6126 37.4211 26.9114 37.4211C31.2624 37.4211 35.0472 34.9198 36.8903 31.2731H39.6418V31.2797Z" fill="#FDFDFD"/>
</g>
</g>
</svg>
