<svg width="31" height="30" viewBox="0 0 31 30" fill="none" xmlns="http://www.w3.org/2000/svg">
<path opacity="0.1" fill-rule="evenodd" clip-rule="evenodd" d="M0.429199 14.999C0.429199 6.71475 7.14493 -0.000976562 15.4292 -0.000976562C23.7135 -0.000976562 30.4292 6.71475 30.4292 14.999C30.4292 23.2833 23.7135 29.999 15.4292 29.999C7.14493 29.999 0.429199 23.2833 0.429199 14.999Z" fill="#FDFDFD"/>
<path fill-rule="evenodd" clip-rule="evenodd" d="M14.98 12.1897L15.0114 12.7088L14.4868 12.6452C12.5772 12.4016 10.909 11.5754 9.49254 10.1878L8.80005 9.49924L8.62168 10.0077C8.24396 11.1411 8.48529 12.338 9.2722 13.1431C9.69189 13.588 9.59746 13.6515 8.8735 13.3867C8.62168 13.302 8.40135 13.2384 8.38036 13.2702C8.30692 13.3443 8.55873 14.3083 8.75808 14.6896C9.03088 15.2192 9.58697 15.7382 10.1955 16.0454L10.7096 16.2891L10.1011 16.2996C9.51352 16.2996 9.49254 16.3102 9.55549 16.5327C9.76533 17.2212 10.5942 17.9521 11.5175 18.2699L12.168 18.4923L11.6015 18.8313C10.7621 19.3185 9.77582 19.5939 8.78956 19.6151C8.31741 19.6257 7.9292 19.6681 7.9292 19.6998C7.9292 19.8058 9.20925 20.399 9.95419 20.632C12.189 21.3205 14.8436 21.0239 16.8371 19.8481C18.2535 19.0113 19.67 17.3483 20.331 15.7382C20.6877 14.8802 21.0444 13.3126 21.0444 12.5605C21.0444 12.0732 21.0759 12.0097 21.6635 11.4271C22.0097 11.0881 22.335 10.7174 22.3979 10.6115C22.5029 10.4102 22.4924 10.4102 21.9573 10.5903C21.0654 10.9081 20.9395 10.8657 21.3802 10.389C21.7054 10.0501 22.0937 9.43569 22.0937 9.25562C22.0937 9.22384 21.9363 9.2768 21.7579 9.37213C21.569 9.47806 21.1494 9.63695 20.8346 9.73228L20.268 9.91235L19.7539 9.5628C19.4706 9.37213 19.0719 9.16028 18.8621 9.09673C18.327 8.94843 17.5086 8.96962 17.0259 9.1391C15.7144 9.61576 14.8855 10.8445 14.98 12.1897Z" fill="#FDFDFD"/>
</svg>
