<svg width="30" height="30" viewBox="0 0 30 30" fill="none" xmlns="http://www.w3.org/2000/svg">
<path opacity="0.1" fill-rule="evenodd" clip-rule="evenodd" d="M0 14.999C0 6.71475 6.71573 -0.000976562 15 -0.000976562C23.2843 -0.000976562 30 6.71475 30 14.999C30 23.2833 23.2843 29.999 15 29.999C6.71573 29.999 0 23.2833 0 14.999Z" fill="#FDFDFD"/>
<path fill-rule="evenodd" clip-rule="evenodd" d="M21.253 9.83942C21.9414 10.0283 22.4836 10.585 22.6676 11.2919C23.002 12.573 23.002 15.2461 23.002 15.2461C23.002 15.2461 23.002 17.9191 22.6676 19.2003C22.4836 19.9072 21.9414 20.4638 21.253 20.6529C20.0053 20.9961 15.002 20.9961 15.002 20.9961C15.002 20.9961 9.99859 20.9961 8.75086 20.6529C8.06241 20.4638 7.52023 19.9072 7.33623 19.2003C7.00195 17.9191 7.00195 15.2461 7.00195 15.2461C7.00195 15.2461 7.00195 12.573 7.33623 11.2919C7.52023 10.585 8.06241 10.0283 8.75086 9.83942C9.99859 9.49609 15.002 9.49609 15.002 9.49609C15.002 9.49609 20.0053 9.49609 21.253 9.83942ZM13.502 12.996V17.996L17.502 15.4961L13.502 12.996Z" fill="#FDFDFD"/>
</svg>
